<?xml version="1.0" encoding="utf-8"?>
<!-- Generator: Adobe Illustrator 24.1.2, SVG Export Plug-In . SVG Version: 6.00 Build 0)  -->
<svg version="1.1" id="Layer_1" xmlns="http://www.w3.org/2000/svg" xmlns:xlink="http://www.w3.org/1999/xlink" x="0px" y="0px"
	 viewBox="0 0 275.7 329.7" style="enable-background:new 0 0 275.7 329.7;" xml:space="preserve">
<style type="text/css">
	.st0{fill:#092E78;stroke:#FFFFFF;stroke-width:1.6972;stroke-miterlimit:10;}
	.st1{fill:#FF0000;}
	.st2{fill:#FFFFFF;}
</style>
<path class="st0" d="M246.9,317.8H29c-8.9,0-16.1-7.2-16.1-16.1v-79.1c0-8.9,7.2-16.1,16.1-16.1h217.9c8.9,0,16.1,7.2,16.1,16.1
	v79.1C263,310.6,255.8,317.8,246.9,317.8z"/>
<path class="st0" d="M246.9,124H29c-8.9,0-16.1-7.2-16.1-16.1V28.8c0-8.9,7.2-16.1,16.1-16.1h217.9c8.9,0,16.1,7.2,16.1,16.1v79.1
	C263,116.8,255.8,124,246.9,124z"/>
<g>
	<path class="st1" d="M133.7,219c-1.2,0-2.3-0.4-3.1-1.3l-20.4-20.4c-1.3-1.3-1.6-3.1-0.9-4.8c0.7-1.7,2.2-2.7,4-2.7l9.8,0.2v-49.7
		l-9.8,0.2c-1.9,0-3.4-1-4.1-2.7c-0.7-1.7-0.3-3.5,0.9-4.8l20.4-20.4c0.8-0.8,1.9-1.3,3.1-1.3s2.3,0.4,3.1,1.3l20.4,20.4
		c1.3,1.3,1.6,3.1,0.9,4.8c-0.7,1.7-2.2,2.7-4,2.7l-9.9-0.2v49.7l9.8-0.2c1.9,0,3.4,1,4.1,2.7c0.7,1.7,0.3,3.5-0.9,4.8l-20.4,20.4
		C136,218.6,134.9,219,133.7,219z"/>
	<path class="st2" d="M133.7,112.9c0.8,0,1.5,0.3,2.1,0.9l20.4,20.4c1.9,1.9,0.5,5.1-2.1,5.1c0,0,0,0-0.1,0l-11.2-0.2v52.5l11.2-0.2
		c0,0,0,0,0.1,0c2.6,0,4,3.2,2.1,5.1l-20.4,20.4c-0.6,0.6-1.4,0.9-2.1,0.9s-1.5-0.3-2.1-0.9l-20.4-20.4c-1.9-1.9-0.5-5.1,2.1-5.1
		c0,0,0,0,0.1,0l11.2,0.2V139l-11.2,0.2c0,0,0,0-0.1,0c-2.7,0-4-3.2-2.1-5.1l20.4-20.4C132.2,113.1,132.9,112.9,133.7,112.9
		 M133.7,110.1c-1.5,0-3,0.6-4.1,1.7l-20.4,20.4c-1.7,1.6-2.1,4.1-1.3,6.3s3,3.6,5.3,3.6h0.1l8.3-0.2v46.9l-8.4-0.1h-0.1
		c-2.3,0-4.4,1.4-5.3,3.6s-0.4,4.6,1.3,6.3l20.4,20.4c1.1,1.1,2.5,1.7,4.1,1.7c1.5,0,3-0.6,4.1-1.7l20.4-20.4
		c1.6-1.6,2.1-4.1,1.3-6.3s-3-3.6-5.3-3.6H154l-8.4,0.2v-46.9l8.4,0.1h0.1c2.3,0,4.4-1.4,5.3-3.6s0.4-4.6-1.3-6.3l-20.4-20.4
		C136.7,110.7,135.2,110.1,133.7,110.1L133.7,110.1z"/>
</g>
<g>
	<path class="st2" d="M91.1,49.5c0,1-0.2,1.9-0.5,2.6c-0.3,0.8-0.8,1.5-1.5,2.1s-1.5,1-2.5,1.4s-2.3,0.5-4,0.5H77
		c-0.4,0-0.7-0.1-1-0.3c-0.3-0.2-0.4-0.6-0.4-1.1V36.2c0-0.5,0.1-0.8,0.4-1c0.3-0.2,0.6-0.3,0.9-0.3h12c0.1,0,0.2,0,0.3,0.1
		c0.1,0.1,0.2,0.1,0.2,0.3s0.1,0.3,0.1,0.5s0,0.5,0,0.8c0,0.3,0,0.6,0,0.8s-0.1,0.4-0.1,0.5s-0.1,0.2-0.2,0.3s-0.2,0.1-0.3,0.1h-9
		v5.3h3.5c1.4,0,2.5,0.1,3.4,0.4s1.6,0.6,2.3,1.2s1.1,1.1,1.4,1.9C90.9,47.8,91.1,48.6,91.1,49.5z M86.7,49.8c0-0.5-0.1-0.9-0.2-1.3
		s-0.4-0.7-0.7-1c-0.3-0.3-0.7-0.5-1.1-0.6c-0.5-0.1-1.1-0.2-1.9-0.2H80v6.1h2.8c0.7,0,1.3-0.1,1.7-0.2s0.8-0.3,1.1-0.6
		c0.3-0.3,0.6-0.6,0.7-1C86.6,50.7,86.7,50.3,86.7,49.8z"/>
	<path class="st2" d="M113.5,45.2c0,1.8-0.2,3.4-0.7,4.7s-1.1,2.6-2,3.6s-1.9,1.7-3.2,2.2s-2.8,0.8-4.4,0.8c-1.7,0-3.1-0.2-4.3-0.6
		c-1.2-0.4-2.3-1.1-3.1-2s-1.4-2-1.8-3.4c-0.4-1.4-0.6-3-0.6-4.9c0-1.7,0.2-3.3,0.7-4.6c0.4-1.4,1.1-2.6,2-3.5
		c0.9-1,1.9-1.7,3.2-2.2c1.3-0.5,2.8-0.8,4.4-0.8c1.6,0,3,0.2,4.3,0.6s2.3,1.1,3.1,2c0.8,0.9,1.4,2,1.9,3.4S113.5,43.4,113.5,45.2z
		 M108.9,45.5c0-1.1-0.1-2.1-0.3-3.1c-0.2-0.9-0.5-1.7-0.9-2.4c-0.4-0.6-1-1.2-1.7-1.5c-0.7-0.4-1.6-0.5-2.6-0.5
		c-1.1,0-1.9,0.2-2.7,0.6s-1.3,0.9-1.7,1.6c-0.4,0.7-0.8,1.4-0.9,2.3s-0.3,1.8-0.3,2.8c0,1.2,0.1,2.2,0.3,3.1
		c0.2,0.9,0.5,1.7,0.9,2.4s1,1.2,1.7,1.5s1.6,0.5,2.7,0.5s1.9-0.2,2.7-0.6c0.7-0.4,1.3-0.9,1.7-1.6c0.4-0.7,0.8-1.5,0.9-2.4
		S108.9,46.5,108.9,45.5z"/>
	<path class="st2" d="M131.7,41.3c0,1.2-0.2,2.3-0.6,3.2c-0.4,0.9-0.9,1.7-1.6,2.3s-1.6,1.1-2.6,1.4s-2.3,0.5-3.7,0.5h-1.8v6.8
		c0,0.1,0,0.2-0.1,0.3s-0.2,0.2-0.3,0.2c-0.2,0.1-0.4,0.1-0.7,0.1c-0.3,0-0.6,0.1-1.1,0.1c-0.4,0-0.8,0-1-0.1
		c-0.3,0-0.5-0.1-0.7-0.1s-0.3-0.1-0.3-0.2s-0.1-0.2-0.1-0.3V36.4c0-0.5,0.1-0.9,0.4-1.2c0.3-0.3,0.6-0.4,1.1-0.4h5
		c0.5,0,1,0,1.4,0.1s1,0.1,1.6,0.3s1.3,0.4,1.9,0.7c0.6,0.3,1.2,0.8,1.7,1.3c0.5,0.5,0.8,1.1,1.1,1.8
		C131.6,39.7,131.7,40.4,131.7,41.3z M127.2,41.6c0-0.8-0.1-1.4-0.4-1.8c-0.3-0.5-0.6-0.8-1-1.1c-0.4-0.2-0.8-0.4-1.2-0.4
		s-0.9-0.1-1.3-0.1h-1.8v7.2h1.9c0.7,0,1.3-0.1,1.7-0.3s0.8-0.4,1.1-0.8s0.5-0.7,0.7-1.2C127.1,42.7,127.2,42.2,127.2,41.6z"/>
	<path class="st2" d="M152.6,61.2c0,0.1,0,0.2-0.1,0.3s-0.1,0.1-0.3,0.2s-0.3,0.1-0.6,0.1s-0.6,0-0.9,0c-0.4,0-0.7,0-0.9,0
		s-0.4-0.1-0.6-0.1c-0.1-0.1-0.3-0.1-0.3-0.2s-0.1-0.2-0.1-0.3v-5h-14.2v5c0,0.1,0,0.2-0.1,0.3s-0.2,0.1-0.3,0.2s-0.3,0.1-0.6,0.1
		s-0.6,0-0.9,0s-0.7,0-0.9,0s-0.4-0.1-0.6-0.1c-0.1-0.1-0.3-0.1-0.3-0.2s-0.1-0.2-0.1-0.3v-7.6c0-0.3,0-0.6,0.2-0.7
		c0.1-0.1,0.3-0.2,0.6-0.2h1c0.3-0.4,0.5-0.8,0.8-1.1s0.5-0.9,0.7-1.4s0.4-1.2,0.6-1.9s0.4-1.7,0.6-2.8s0.4-2.4,0.6-3.9
		s0.4-3.2,0.7-5.2c0.1-0.5,0.2-0.9,0.4-1.1s0.5-0.3,0.9-0.3h10.9c0.4,0,0.7,0.1,0.9,0.3c0.2,0.2,0.3,0.6,0.3,1v16.4h1.8
		c0.3,0,0.5,0.1,0.6,0.2c0.1,0.2,0.2,0.4,0.2,0.7L152.6,61.2L152.6,61.2z M145.6,38.3h-5c-0.2,1.7-0.4,3.1-0.6,4.4
		c-0.2,1.3-0.4,2.4-0.6,3.3c-0.2,1-0.4,1.8-0.6,2.5c-0.2,0.7-0.4,1.3-0.6,1.8c-0.2,0.5-0.4,0.9-0.6,1.3s-0.4,0.7-0.7,1h8.6
		L145.6,38.3L145.6,38.3z"/>
	<path class="st2" d="M179.9,55.5c0,0.1,0,0.2-0.1,0.3s-0.2,0.2-0.4,0.2s-0.4,0.1-0.7,0.1c-0.3,0-0.6,0.1-1,0.1
		c-0.4,0-0.8,0-1.1-0.1s-0.5-0.1-0.7-0.1s-0.3-0.1-0.3-0.2c-0.1-0.1-0.1-0.2-0.1-0.3v-8.6h-8v8.6c0,0.1,0,0.2-0.1,0.3
		s-0.2,0.2-0.4,0.2c-0.2,0.1-0.4,0.1-0.7,0.1c-0.3,0-0.6,0.1-1.1,0.1s-0.8,0-1-0.1c-0.3,0-0.5-0.1-0.7-0.1s-0.3-0.1-0.4-0.2
		s-0.1-0.2-0.1-0.3V35.4c0-0.1,0-0.2,0.1-0.3s0.2-0.2,0.4-0.2s0.4-0.1,0.7-0.1s0.6-0.1,1-0.1c0.4,0,0.8,0,1.1,0.1s0.5,0.1,0.7,0.1
		c0.2,0.1,0.3,0.1,0.4,0.2c0.1,0.1,0.1,0.2,0.1,0.3v7.8h8v-7.8c0-0.1,0-0.2,0.1-0.3s0.2-0.2,0.3-0.2c0.2-0.1,0.4-0.1,0.7-0.1
		s0.6-0.1,1.1-0.1c0.4,0,0.8,0,1,0.1c0.3,0,0.5,0.1,0.7,0.1c0.2,0.1,0.3,0.1,0.4,0.2c0.1,0.1,0.1,0.2,0.1,0.3V55.5z"/>
	<path class="st2" d="M201.9,54.5c0.1,0.4,0.2,0.7,0.3,0.9c0,0.2,0,0.4-0.1,0.5c-0.1,0.1-0.3,0.2-0.6,0.2c-0.3,0-0.7,0-1.3,0
		c-0.6,0-1,0-1.3,0s-0.6-0.1-0.7-0.1c-0.2-0.1-0.3-0.1-0.4-0.2c-0.1-0.1-0.1-0.2-0.2-0.3l-1.4-4.3h-8l-1.4,4.2
		c0,0.1-0.1,0.3-0.2,0.4c-0.1,0.1-0.2,0.2-0.4,0.3s-0.4,0.1-0.7,0.1c-0.3,0-0.7,0-1.1,0c-0.5,0-0.9,0-1.2-0.1
		c-0.3,0-0.5-0.1-0.6-0.2s-0.1-0.3-0.1-0.5c0-0.2,0.1-0.5,0.3-0.9l6.6-18.9c0.1-0.2,0.1-0.3,0.2-0.4c0.1-0.1,0.2-0.2,0.4-0.3
		s0.5-0.1,0.8-0.1c0.3,0,0.8,0,1.4,0c0.6,0,1.2,0,1.6,0c0.4,0,0.7,0.1,0.9,0.1c0.2,0.1,0.4,0.1,0.5,0.3c0.1,0.1,0.2,0.3,0.2,0.5
		L201.9,54.5z M192.2,38.9L192.2,38.9l-3,9.1h6L192.2,38.9z"/>
	<path class="st2" d="M71.7,101.6c0,0.1,0,0.2-0.1,0.3s-0.2,0.1-0.3,0.2c-0.1,0-0.3,0.1-0.6,0.1s-0.6,0-0.9,0c-0.4,0-0.7,0-0.9,0
		c-0.2,0-0.4-0.1-0.6-0.1s-0.3-0.1-0.3-0.2c-0.1-0.1-0.1-0.2-0.1-0.3v-5H53.8v5c0,0.1,0,0.2-0.1,0.3s-0.2,0.1-0.3,0.2
		s-0.3,0.1-0.6,0.1s-0.5,0-0.9,0s-0.7,0-0.9,0s-0.4-0.1-0.6-0.1s-0.3-0.1-0.3-0.2c-0.1-0.1-0.1-0.2-0.1-0.3v-7.6
		c0-0.3,0-0.5,0.2-0.7c0.1-0.1,0.3-0.2,0.6-0.2h1c0.3-0.4,0.5-0.8,0.8-1.1c0.2-0.4,0.5-0.9,0.7-1.4c0.2-0.5,0.4-1.2,0.7-1.9
		s0.4-1.7,0.6-2.8s0.4-2.4,0.6-3.9c0.2-1.5,0.4-3.2,0.7-5.2c0.1-0.5,0.2-0.9,0.4-1.1s0.5-0.3,0.9-0.3h10.9c0.4,0,0.7,0.1,0.9,0.3
		s0.3,0.6,0.3,1V93h1.8c0.3,0,0.5,0.1,0.6,0.2s0.2,0.4,0.2,0.7L71.7,101.6L71.7,101.6z M64.8,78.8h-5c-0.2,1.7-0.4,3.1-0.6,4.4
		c-0.2,1.3-0.4,2.4-0.6,3.3c-0.2,1-0.4,1.8-0.6,2.5c-0.2,0.7-0.4,1.3-0.6,1.8c-0.2,0.5-0.4,0.9-0.6,1.3s-0.4,0.7-0.7,1h8.6
		L64.8,78.8L64.8,78.8z"/>
	<path class="st2" d="M92.1,96c0,0.1,0,0.2-0.1,0.3c-0.1,0.1-0.2,0.1-0.3,0.2s-0.4,0.1-0.7,0.1s-0.6,0-1,0c-0.4,0-0.8,0-1,0
		s-0.5-0.1-0.7-0.1s-0.3-0.1-0.3-0.2c-0.1-0.1-0.1-0.2-0.1-0.3V84.8c0-0.4,0-0.9,0-1.3c0-0.4,0-0.8,0.1-1.1h0
		c-0.1,0.1-0.2,0.3-0.3,0.5s-0.3,0.4-0.4,0.6s-0.3,0.5-0.4,0.7c-0.2,0.2-0.3,0.5-0.5,0.7l-7.4,11c-0.1,0.1-0.2,0.2-0.3,0.3
		c-0.1,0.1-0.2,0.2-0.4,0.2s-0.3,0.1-0.5,0.1s-0.5,0-0.8,0c-0.4,0-0.8,0-1,0c-0.3,0-0.5-0.1-0.6-0.1s-0.3-0.1-0.3-0.2
		c-0.1-0.1-0.1-0.2-0.1-0.3V75.9c0-0.1,0-0.2,0.1-0.3s0.2-0.1,0.4-0.2s0.4-0.1,0.7-0.1c0.3,0,0.6,0,1,0c0.4,0,0.8,0,1.1,0
		c0.3,0,0.5,0.1,0.7,0.1s0.3,0.1,0.3,0.2s0.1,0.2,0.1,0.3v11.3c0,0.4,0,0.7,0,1.1c0,0.4,0,0.8-0.1,1.1h0c0.2-0.3,0.4-0.7,0.7-1.2
		s0.6-0.9,0.9-1.4l7.4-11c0.1-0.1,0.2-0.2,0.3-0.3c0.1-0.1,0.2-0.1,0.3-0.2s0.3-0.1,0.6-0.1c0.2,0,0.5,0,0.8,0c0.4,0,0.8,0,1,0
		s0.5,0.1,0.6,0.1c0.2,0,0.3,0.1,0.3,0.2c0.1,0.1,0.1,0.2,0.1,0.3L92.1,96L92.1,96z"/>
	<path class="st2" d="M111.3,81.7c0,1.2-0.2,2.3-0.6,3.2c-0.4,0.9-0.9,1.7-1.6,2.3c-0.7,0.6-1.6,1.1-2.6,1.4c-1,0.3-2.3,0.5-3.7,0.5
		h-1.8V96c0,0.1,0,0.2-0.1,0.3s-0.2,0.2-0.3,0.2c-0.2,0-0.4,0.1-0.7,0.1c-0.3,0-0.6,0-1.1,0c-0.4,0-0.8,0-1,0
		c-0.3,0-0.5-0.1-0.7-0.1s-0.3-0.1-0.3-0.2s-0.1-0.2-0.1-0.3V76.8c0-0.5,0.1-0.9,0.4-1.2c0.3-0.3,0.6-0.4,1.1-0.4h5
		c0.5,0,1,0,1.4,0.1s1,0.1,1.6,0.3s1.3,0.4,1.9,0.7c0.7,0.3,1.2,0.8,1.7,1.3c0.5,0.5,0.8,1.1,1.1,1.8
		C111.2,80.1,111.3,80.9,111.3,81.7z M106.8,82.1c0-0.8-0.1-1.4-0.4-1.8c-0.3-0.5-0.6-0.8-1-1.1c-0.4-0.2-0.8-0.4-1.2-0.4
		s-0.9-0.1-1.3-0.1h-1.8v7.2h1.9c0.7,0,1.3-0.1,1.7-0.3s0.8-0.5,1.1-0.8c0.3-0.3,0.5-0.7,0.7-1.2S106.8,82.6,106.8,82.1z"/>
	<path class="st2" d="M127.3,94.9c0,0.3,0,0.6,0,0.8s-0.1,0.4-0.1,0.5s-0.1,0.2-0.2,0.3c-0.1,0.1-0.2,0.1-0.3,0.1H116
		c-0.4,0-0.7-0.1-0.9-0.3c-0.3-0.2-0.4-0.6-0.4-1V76.7c0-0.5,0.1-0.8,0.4-1c0.3-0.2,0.6-0.3,0.9-0.3h10.6c0.1,0,0.2,0,0.3,0.1
		c0.1,0.1,0.1,0.1,0.2,0.3c0.1,0.1,0.1,0.3,0.1,0.5s0,0.5,0,0.8c0,0.3,0,0.6,0,0.8s-0.1,0.4-0.1,0.5c-0.1,0.1-0.1,0.2-0.2,0.3
		c-0.1,0.1-0.2,0.1-0.3,0.1H119v5.2h6.4c0.1,0,0.2,0,0.3,0.1c0.1,0.1,0.2,0.1,0.2,0.3s0.1,0.3,0.1,0.5s0,0.5,0,0.8
		c0,0.3,0,0.6,0,0.8c0,0.2-0.1,0.4-0.1,0.5c-0.1,0.1-0.1,0.2-0.2,0.3s-0.2,0.1-0.3,0.1H119v6h7.7c0.1,0,0.2,0,0.3,0.1
		c0.1,0.1,0.2,0.2,0.2,0.3s0.1,0.3,0.1,0.5S127.3,94.6,127.3,94.9z"/>
	<path class="st2" d="M146.9,96c0,0.1,0,0.2-0.1,0.3s-0.2,0.1-0.4,0.2s-0.4,0.1-0.7,0.1s-0.6,0-1.1,0c-0.5,0-0.9,0-1.1,0
		s-0.5-0.1-0.7-0.1s-0.3-0.1-0.4-0.3s-0.1-0.2-0.2-0.4l-1.7-4.7c-0.2-0.7-0.5-1.3-0.8-1.7c-0.3-0.5-0.6-0.8-0.9-1.1
		c-0.3-0.3-0.7-0.5-1.1-0.6s-0.9-0.2-1.4-0.2h-1V96c0,0.1,0,0.2-0.1,0.3s-0.2,0.1-0.4,0.2c-0.2,0.1-0.4,0.1-0.7,0.1
		c-0.3,0-0.6,0-1.1,0s-0.8,0-1,0s-0.5-0.1-0.7-0.1c-0.2-0.1-0.3-0.1-0.4-0.2s-0.1-0.2-0.1-0.3V75.8c0-0.1,0-0.2,0.1-0.3
		s0.2-0.1,0.4-0.2s0.4-0.1,0.7-0.1c0.3,0,0.6,0,1,0c0.4,0,0.8,0,1.1,0s0.5,0.1,0.7,0.1s0.3,0.1,0.4,0.2c0.1,0.1,0.1,0.2,0.1,0.3v8h1
		c0.5,0,0.9-0.1,1.3-0.2s0.7-0.3,1-0.6s0.6-0.7,0.8-1.1c0.3-0.5,0.5-1,0.7-1.7l1.4-4.2c0.1-0.1,0.1-0.3,0.2-0.4
		c0.1-0.1,0.2-0.2,0.4-0.3s0.4-0.1,0.7-0.1s0.7,0,1.1,0c0.4,0,0.8,0,1.1,0s0.5,0.1,0.7,0.1s0.3,0.1,0.3,0.2c0.1,0.1,0.1,0.2,0.1,0.3
		c0,0.1,0,0.3-0.1,0.5s-0.1,0.5-0.3,0.8l-1.4,3.8c-0.3,0.7-0.5,1.3-0.8,1.8c-0.3,0.5-0.5,0.9-0.8,1.3c-0.3,0.4-0.6,0.6-0.9,0.9
		c-0.3,0.2-0.7,0.4-1.1,0.5v0c0.4,0.2,0.8,0.4,1.2,0.6c0.4,0.2,0.7,0.5,1,0.9s0.6,0.8,0.9,1.3s0.6,1.2,0.9,1.9l1.7,4.4
		c0.2,0.5,0.3,0.8,0.3,0.9S146.9,95.9,146.9,96z"/>
	<path class="st2" d="M164,77.1c0,0.3,0,0.6,0,0.8s-0.1,0.4-0.1,0.5c-0.1,0.1-0.1,0.2-0.2,0.3c-0.1,0.1-0.2,0.1-0.3,0.1H158V96
		c0,0.1,0,0.2-0.1,0.3s-0.2,0.2-0.4,0.2c-0.2,0-0.4,0.1-0.7,0.1s-0.6,0-1,0c-0.4,0-0.8,0-1,0c-0.3,0-0.5-0.1-0.7-0.1
		c-0.2,0-0.3-0.1-0.4-0.2s-0.1-0.2-0.1-0.3V78.8h-5.3c-0.1,0-0.2,0-0.3-0.1s-0.1-0.2-0.2-0.3c-0.1-0.1-0.1-0.3-0.1-0.5s0-0.5,0-0.8
		c0-0.3,0-0.6,0-0.8s0.1-0.4,0.1-0.5c0.1-0.1,0.1-0.2,0.2-0.3s0.2-0.1,0.3-0.1h15c0.1,0,0.2,0,0.3,0.1s0.1,0.2,0.2,0.3
		c0.1,0.1,0.1,0.3,0.1,0.5C164,76.4,164,76.7,164,77.1z"/>
	<path class="st2" d="M184.9,85.7c0,1.8-0.2,3.4-0.7,4.7c-0.4,1.4-1.1,2.6-2,3.5c-0.9,1-1.9,1.7-3.2,2.2s-2.8,0.8-4.4,0.8
		c-1.7,0-3.1-0.2-4.3-0.6c-1.2-0.4-2.3-1.1-3.1-2s-1.4-2-1.9-3.4c-0.4-1.4-0.6-3-0.6-4.9c0-1.7,0.2-3.3,0.7-4.6s1.1-2.5,2-3.5
		c0.9-1,1.9-1.7,3.2-2.2c1.3-0.5,2.8-0.8,4.4-0.8c1.6,0,3,0.2,4.3,0.6c1.2,0.4,2.3,1.1,3.1,2c0.8,0.9,1.4,2,1.9,3.4
		C184.7,82.2,184.9,83.8,184.9,85.7z M180.4,85.9c0-1.1-0.1-2.1-0.3-3s-0.5-1.7-0.9-2.4c-0.4-0.6-1-1.2-1.7-1.5
		c-0.7-0.4-1.6-0.5-2.6-0.5c-1.1,0-1.9,0.2-2.7,0.6s-1.3,0.9-1.7,1.6c-0.4,0.7-0.8,1.5-0.9,2.3c-0.2,0.9-0.3,1.8-0.3,2.8
		c0,1.2,0.1,2.2,0.3,3.1c0.2,0.9,0.5,1.7,0.9,2.4s1,1.2,1.7,1.5s1.6,0.5,2.6,0.5c1.1,0,1.9-0.2,2.7-0.6c0.7-0.4,1.3-0.9,1.7-1.6
		s0.8-1.5,0.9-2.4C180.3,87.9,180.4,86.9,180.4,85.9z"/>
	<path class="st2" d="M203.1,81.7c0,1.2-0.2,2.3-0.6,3.2c-0.4,0.9-0.9,1.7-1.6,2.3s-1.6,1.1-2.6,1.4s-2.3,0.5-3.7,0.5h-1.8V96
		c0,0.1,0,0.2-0.1,0.3s-0.2,0.2-0.4,0.2s-0.4,0.1-0.7,0.1c-0.3,0-0.6,0-1.1,0s-0.8,0-1,0c-0.3,0-0.5-0.1-0.7-0.1
		c-0.2,0-0.3-0.1-0.4-0.2c-0.1-0.1-0.1-0.2-0.1-0.3V76.8c0-0.5,0.1-0.9,0.4-1.2c0.3-0.3,0.6-0.4,1.1-0.4h5c0.5,0,1,0,1.4,0.1
		s1,0.1,1.6,0.3s1.3,0.4,1.9,0.7s1.2,0.8,1.7,1.3c0.5,0.5,0.8,1.1,1.1,1.8C203,80.1,203.1,80.9,203.1,81.7z M198.6,82.1
		c0-0.8-0.1-1.4-0.4-1.8c-0.3-0.5-0.6-0.8-1-1.1s-0.8-0.4-1.2-0.4s-0.9-0.1-1.3-0.1h-1.8v7.2h1.9c0.7,0,1.3-0.1,1.7-0.3
		s0.9-0.5,1.1-0.8s0.5-0.7,0.7-1.2C198.5,83.1,198.6,82.6,198.6,82.1z"/>
	<path class="st2" d="M223.8,96c0,0.1,0,0.2-0.1,0.3c-0.1,0.1-0.2,0.1-0.4,0.2s-0.4,0.1-0.7,0.1s-0.6,0-1,0c-0.4,0-0.8,0-1,0
		s-0.5-0.1-0.7-0.1s-0.3-0.1-0.3-0.2c-0.1-0.1-0.1-0.2-0.1-0.3V84.8c0-0.4,0-0.9,0-1.3c0-0.4,0-0.8,0.1-1.1h0
		c-0.1,0.1-0.2,0.3-0.3,0.5c-0.1,0.2-0.3,0.4-0.4,0.6s-0.3,0.5-0.4,0.7c-0.1,0.2-0.3,0.5-0.5,0.7l-7.4,11c-0.1,0.1-0.2,0.2-0.3,0.3
		c-0.1,0.1-0.2,0.2-0.4,0.2s-0.3,0.1-0.5,0.1s-0.5,0-0.8,0c-0.4,0-0.8,0-1,0c-0.3,0-0.5-0.1-0.6-0.1s-0.3-0.1-0.3-0.2
		s-0.1-0.2-0.1-0.3V75.9c0-0.1,0-0.2,0.1-0.3s0.2-0.1,0.4-0.2s0.4-0.1,0.7-0.1s0.6,0,1,0c0.4,0,0.8,0,1.1,0s0.5,0.1,0.7,0.1
		c0.2,0,0.3,0.1,0.4,0.2c0.1,0.1,0.1,0.2,0.1,0.3v11.3c0,0.4,0,0.7,0,1.1c0,0.4,0,0.8-0.1,1.1h0c0.2-0.3,0.4-0.7,0.7-1.2
		c0.3-0.5,0.6-0.9,0.9-1.4l7.4-11c0.1-0.1,0.2-0.2,0.3-0.3c0.1-0.1,0.2-0.1,0.4-0.2c0.1,0,0.3-0.1,0.6-0.1c0.2,0,0.5,0,0.8,0
		c0.4,0,0.8,0,1,0s0.5,0.1,0.6,0.1c0.1,0,0.3,0.1,0.3,0.2c0.1,0.1,0.1,0.2,0.1,0.3L223.8,96L223.8,96z"/>
</g>
<g>
	<path class="st2" d="M86.1,251.4c0,0.1,0,0.2-0.1,0.3s-0.2,0.1-0.3,0.2c-0.2,0.1-0.4,0.1-0.7,0.1c-0.3,0-0.6,0-1,0
		c-0.4,0-0.8,0-1,0c-0.3,0-0.5-0.1-0.7-0.1c-0.2,0-0.3-0.1-0.3-0.2c-0.1-0.1-0.1-0.2-0.1-0.3v-11.2c0-0.4,0-0.9,0-1.3
		c0-0.4,0-0.8,0.1-1.1h0c-0.1,0.2-0.2,0.3-0.3,0.5s-0.3,0.4-0.4,0.6s-0.3,0.5-0.4,0.7c-0.2,0.2-0.3,0.5-0.5,0.7l-7.4,11
		c-0.1,0.1-0.2,0.2-0.3,0.3c-0.1,0.1-0.2,0.2-0.4,0.2c-0.2,0-0.3,0.1-0.5,0.1c-0.2,0-0.5,0-0.8,0c-0.4,0-0.8,0-1,0
		c-0.3,0-0.5-0.1-0.6-0.1s-0.3-0.1-0.3-0.2c-0.1-0.1-0.1-0.2-0.1-0.3v-20.1c0-0.1,0-0.2,0.1-0.3s0.2-0.2,0.4-0.2s0.4-0.1,0.7-0.1
		c0.3,0,0.6,0,1,0c0.4,0,0.8,0,1.1,0c0.3,0,0.5,0.1,0.7,0.1c0.2,0.1,0.3,0.1,0.3,0.2s0.1,0.2,0.1,0.3v11.3c0,0.3,0,0.7,0,1.1
		s0,0.8-0.1,1.2h0c0.2-0.3,0.4-0.7,0.7-1.2c0.3-0.5,0.6-0.9,0.9-1.3l7.4-11c0.1-0.1,0.2-0.2,0.3-0.3s0.2-0.2,0.3-0.2
		c0.2-0.1,0.3-0.1,0.6-0.1c0.2,0,0.5,0,0.8,0c0.4,0,0.8,0,1,0c0.3,0,0.5,0.1,0.6,0.1c0.2,0,0.3,0.1,0.3,0.2c0.1,0.1,0.1,0.2,0.1,0.3
		L86.1,251.4L86.1,251.4z"/>
	<path class="st2" d="M103.5,245.8c0,1.1-0.2,2-0.6,2.8c-0.4,0.8-1,1.5-1.7,2.1s-1.7,1-2.7,1.2c-1.1,0.3-2.2,0.4-3.5,0.4
		c-0.7,0-1.3-0.1-1.9-0.2s-1.1-0.2-1.5-0.4c-0.4-0.2-0.8-0.3-1-0.4s-0.4-0.3-0.6-0.3c-0.1-0.1-0.2-0.2-0.3-0.3
		c-0.1-0.1-0.1-0.2-0.1-0.4s-0.1-0.4-0.1-0.7c0-0.3,0-0.6,0-1c0-0.5,0-0.8,0.1-0.9c0.1-0.2,0.2-0.2,0.4-0.2c0.1,0,0.3,0.1,0.6,0.2
		s0.6,0.3,0.9,0.5c0.4,0.2,0.8,0.3,1.3,0.5c0.5,0.1,1.2,0.2,1.9,0.2c0.6,0,1.1-0.1,1.6-0.2s0.9-0.3,1.2-0.6c0.3-0.3,0.6-0.6,0.8-0.9
		s0.3-0.8,0.3-1.2c0-0.5-0.1-0.9-0.3-1.3s-0.4-0.7-0.8-1s-0.8-0.5-1.4-0.6c-0.6-0.1-1.2-0.2-2-0.2h-2.3c-0.2,0-0.3,0-0.4-0.1
		c-0.1-0.1-0.2-0.1-0.2-0.3c-0.1-0.1-0.1-0.3-0.1-0.5c0-0.2,0-0.5,0-0.9c0-0.3,0-0.6,0-0.8s0.1-0.4,0.1-0.5c0.1-0.1,0.1-0.2,0.2-0.3
		c0.1,0,0.2-0.1,0.3-0.1h2.3c0.7,0,1.3-0.1,1.8-0.2c0.5-0.1,0.9-0.3,1.3-0.6c0.3-0.3,0.6-0.6,0.8-0.9s0.3-0.8,0.3-1.3
		c0-0.4-0.1-0.8-0.2-1.1s-0.3-0.6-0.6-0.8c-0.3-0.2-0.6-0.4-1-0.5c-0.4-0.1-0.9-0.2-1.4-0.2c-0.7,0-1.3,0.1-1.8,0.2s-1,0.3-1.4,0.5
		c-0.4,0.2-0.7,0.3-1,0.5c-0.3,0.1-0.5,0.2-0.6,0.2c-0.1,0-0.1,0-0.2-0.1c-0.1,0-0.1-0.1-0.2-0.2c0-0.1-0.1-0.3-0.1-0.5
		c0-0.2,0-0.5,0-0.8c0-0.2,0-0.4,0-0.6c0-0.2,0-0.4,0.1-0.5c0-0.1,0.1-0.3,0.1-0.4c0.1-0.1,0.1-0.2,0.3-0.3c0.1-0.1,0.3-0.3,0.7-0.4
		c0.4-0.2,0.8-0.3,1.3-0.5c0.5-0.1,1.1-0.3,1.7-0.4c0.7-0.1,1.3-0.1,2.1-0.1c1.1,0,2.1,0.1,3,0.4c0.8,0.2,1.6,0.6,2.1,1
		c0.6,0.5,1,1,1.3,1.7c0.3,0.7,0.4,1.4,0.4,2.3c0,0.7-0.1,1.3-0.3,1.9c-0.2,0.6-0.4,1-0.8,1.5c-0.4,0.4-0.8,0.8-1.2,1.1
		c-0.5,0.3-1,0.5-1.6,0.6v0c0.7,0.1,1.3,0.3,1.8,0.5c0.6,0.3,1,0.7,1.4,1.1c0.4,0.5,0.7,1,0.9,1.5
		C103.4,244.5,103.5,245.1,103.5,245.8z"/>
	<path class="st2" d="M122.4,245.6c0,0.8-0.1,1.4-0.3,2.1c-0.2,0.6-0.5,1.2-0.9,1.6c-0.4,0.5-0.8,0.9-1.3,1.2s-1.1,0.6-1.7,0.8
		s-1.3,0.4-2,0.5c-0.7,0.1-1.5,0.2-2.3,0.2h-5.7c-0.4,0-0.7-0.1-0.9-0.3c-0.3-0.2-0.4-0.6-0.4-1V232c0-0.5,0.1-0.8,0.4-1
		c0.3-0.2,0.6-0.3,0.9-0.3h5.3c1.3,0,2.4,0.1,3.3,0.3c0.9,0.2,1.7,0.5,2.3,1c0.6,0.4,1.1,1,1.4,1.7c0.3,0.7,0.5,1.5,0.5,2.4
		c0,0.5-0.1,1-0.2,1.5c-0.1,0.5-0.3,0.9-0.6,1.2c-0.3,0.4-0.6,0.7-0.9,1c-0.4,0.3-0.8,0.5-1.3,0.7c0.6,0.1,1.2,0.3,1.7,0.6
		c0.5,0.3,0.9,0.6,1.3,1.1c0.4,0.4,0.7,0.9,0.9,1.5C122.3,244.2,122.4,244.9,122.4,245.6z M116.8,236.6c0-0.4-0.1-0.8-0.2-1.1
		c-0.1-0.3-0.3-0.6-0.6-0.9c-0.3-0.2-0.6-0.4-1-0.5c-0.4-0.1-0.9-0.2-1.6-0.2h-2.2v5.5h2.4c0.6,0,1.1-0.1,1.5-0.2
		c0.4-0.2,0.7-0.4,0.9-0.6s0.4-0.6,0.6-0.9C116.8,237.4,116.8,237,116.8,236.6z M117.9,245.7c0-0.5-0.1-0.9-0.3-1.3
		c-0.2-0.4-0.4-0.7-0.7-1c-0.3-0.3-0.7-0.5-1.2-0.6c-0.5-0.1-1.1-0.2-1.9-0.2h-2.6v6.1h3.1c0.6,0,1.1-0.1,1.5-0.2
		c0.4-0.1,0.8-0.3,1.1-0.6s0.5-0.6,0.7-0.9C117.8,246.6,117.9,246.2,117.9,245.7z"/>
	<path class="st2" d="M140.5,237.1c0,1.2-0.2,2.3-0.6,3.2c-0.4,0.9-0.9,1.7-1.6,2.3c-0.7,0.6-1.6,1.1-2.6,1.4
		c-1,0.3-2.3,0.5-3.7,0.5h-1.8v6.8c0,0.1,0,0.2-0.1,0.3c-0.1,0.1-0.2,0.2-0.4,0.2c-0.2,0.1-0.4,0.1-0.7,0.1c-0.3,0-0.6,0-1.1,0
		s-0.8,0-1,0s-0.5-0.1-0.7-0.1c-0.2-0.1-0.3-0.1-0.3-0.2c-0.1-0.1-0.1-0.2-0.1-0.3v-19.2c0-0.5,0.1-0.9,0.4-1.2s0.6-0.4,1.1-0.4h5
		c0.5,0,1,0,1.4,0.1c0.5,0,1,0.1,1.6,0.3c0.6,0.1,1.3,0.4,1.9,0.7c0.6,0.3,1.2,0.8,1.7,1.3c0.5,0.5,0.8,1.1,1.1,1.8
		S140.5,236.3,140.5,237.1z M135.9,237.5c0-0.8-0.1-1.4-0.4-1.8s-0.6-0.8-1-1.1c-0.4-0.2-0.8-0.4-1.2-0.4c-0.4-0.1-0.9-0.1-1.3-0.1
		h-1.8v7.2h1.9c0.7,0,1.3-0.1,1.7-0.3c0.5-0.2,0.9-0.5,1.1-0.8c0.3-0.3,0.5-0.7,0.7-1.2C135.9,238.5,135.9,238,135.9,237.5z"/>
	<path class="st2" d="M169.4,250.6c0,0.5-0.1,0.8-0.3,1c-0.2,0.2-0.5,0.3-0.9,0.3h-23c-0.4,0-0.7-0.1-0.9-0.3
		c-0.2-0.2-0.4-0.6-0.4-1v-19.4c0-0.1,0-0.2,0.1-0.3s0.2-0.1,0.4-0.2c0.2,0,0.4-0.1,0.7-0.1s0.6,0,1,0c0.4,0,0.7,0,1,0
		c0.3,0,0.5,0.1,0.6,0.1c0.2,0.1,0.3,0.1,0.4,0.2s0.1,0.2,0.1,0.3v17.2h6.4v-17.2c0-0.1,0-0.2,0.1-0.3s0.2-0.1,0.4-0.2
		c0.2-0.1,0.4-0.1,0.6-0.1s0.6,0,1,0s0.7,0,1,0c0.3,0,0.5,0.1,0.6,0.1c0.2,0,0.3,0.1,0.4,0.2c0.1,0.1,0.1,0.2,0.1,0.3v17.2h6.4
		v-17.2c0-0.1,0-0.2,0.1-0.3s0.2-0.1,0.4-0.2c0.2-0.1,0.4-0.1,0.6-0.1s0.6,0,1,0s0.7,0,1,0s0.5,0.1,0.6,0.1c0.2,0,0.3,0.1,0.4,0.2
		c0.1,0.1,0.1,0.2,0.1,0.3L169.4,250.6L169.4,250.6z"/>
	<path class="st2" d="M186.7,250.3c0,0.3,0,0.6,0,0.8c0,0.2-0.1,0.4-0.1,0.5c-0.1,0.1-0.1,0.2-0.2,0.3c-0.1,0.1-0.2,0.1-0.3,0.1
		h-10.7c-0.4,0-0.7-0.1-0.9-0.3c-0.2-0.2-0.4-0.6-0.4-1V232c0-0.5,0.1-0.8,0.4-1c0.3-0.2,0.6-0.3,0.9-0.3H186c0.1,0,0.2,0,0.3,0.1
		c0.1,0.1,0.1,0.1,0.2,0.3c0.1,0.1,0.1,0.3,0.1,0.5c0,0.2,0,0.5,0,0.8c0,0.3,0,0.6,0,0.8c0,0.2-0.1,0.4-0.1,0.5
		c-0.1,0.1-0.1,0.2-0.2,0.3c-0.1,0.1-0.2,0.1-0.3,0.1h-7.6v5.2h6.4c0.1,0,0.2,0,0.3,0.1c0.1,0.1,0.1,0.2,0.2,0.3
		c0.1,0.1,0.1,0.3,0.1,0.5c0,0.2,0,0.5,0,0.8c0,0.3,0,0.6,0,0.8c0,0.2-0.1,0.4-0.1,0.5c-0.1,0.1-0.1,0.2-0.2,0.3
		c-0.1,0.1-0.2,0.1-0.3,0.1h-6.4v6h7.7c0.1,0,0.2,0,0.3,0.1c0.1,0.1,0.1,0.2,0.2,0.3c0.1,0.1,0.1,0.3,0.1,0.5S186.7,250,186.7,250.3
		z"/>
	<path class="st2" d="M207.1,251.4c0,0.1,0,0.2-0.1,0.3s-0.2,0.2-0.4,0.2c-0.2,0-0.4,0.1-0.7,0.1c-0.3,0-0.6,0.1-1,0.1
		c-0.4,0-0.8,0-1.1-0.1s-0.5-0.1-0.7-0.1c-0.2-0.1-0.3-0.1-0.3-0.2c-0.1-0.1-0.1-0.2-0.1-0.3v-8.6h-8v8.6c0,0.1,0,0.2-0.1,0.3
		s-0.2,0.2-0.4,0.2c-0.2,0.1-0.4,0.1-0.7,0.1s-0.6,0.1-1.1,0.1s-0.8,0-1-0.1c-0.3,0-0.5-0.1-0.7-0.1c-0.2-0.1-0.3-0.1-0.4-0.2
		c-0.1-0.1-0.1-0.2-0.1-0.3v-20.1c0-0.1,0-0.2,0.1-0.3s0.2-0.2,0.4-0.2c0.2-0.1,0.4-0.1,0.7-0.1s0.6-0.1,1-0.1c0.4,0,0.8,0,1.1,0.1
		s0.5,0.1,0.7,0.1c0.2,0.1,0.3,0.1,0.4,0.2c0.1,0.1,0.1,0.2,0.1,0.3v7.8h8v-7.8c0-0.1,0-0.2,0.1-0.3s0.2-0.2,0.3-0.2
		c0.2-0.1,0.4-0.1,0.7-0.1s0.6-0.1,1.1-0.1c0.4,0,0.8,0,1,0.1s0.5,0.1,0.7,0.1c0.2,0.1,0.3,0.1,0.4,0.2c0.1,0.1,0.1,0.2,0.1,0.3
		V251.4z"/>
	<path class="st2" d="M82.7,297.4c0,0.1,0,0.2-0.1,0.3c-0.1,0.1-0.2,0.1-0.3,0.2c-0.1,0-0.3,0.1-0.6,0.1s-0.6,0-0.9,0
		c-0.4,0-0.7,0-0.9,0c-0.2,0-0.4-0.1-0.6-0.1c-0.2-0.1-0.3-0.1-0.3-0.2c-0.1-0.1-0.1-0.2-0.1-0.3v-5H64.8v5c0,0.1,0,0.2-0.1,0.3
		c-0.1,0.1-0.2,0.1-0.3,0.2c-0.2,0-0.3,0.1-0.6,0.1s-0.5,0-0.9,0s-0.7,0-0.9,0s-0.4-0.1-0.6-0.1c-0.2-0.1-0.3-0.1-0.3-0.2
		c-0.1-0.1-0.1-0.2-0.1-0.3v-7.7c0-0.3,0-0.5,0.2-0.7c0.1-0.1,0.3-0.2,0.6-0.2h1c0.3-0.4,0.5-0.8,0.8-1.1c0.2-0.4,0.5-0.9,0.7-1.4
		c0.2-0.5,0.4-1.2,0.7-1.9s0.4-1.7,0.6-2.8s0.4-2.4,0.6-3.9c0.2-1.5,0.4-3.2,0.7-5.2c0.1-0.5,0.2-0.9,0.4-1.1
		c0.2-0.2,0.5-0.3,0.9-0.3h10.9c0.4,0,0.7,0.1,0.9,0.3c0.2,0.2,0.3,0.6,0.3,1v16.4h1.8c0.3,0,0.5,0.1,0.6,0.2s0.2,0.4,0.2,0.7
		L82.7,297.4L82.7,297.4z M75.8,274.6h-5c-0.2,1.7-0.4,3.1-0.6,4.4s-0.4,2.4-0.6,3.3c-0.2,0.9-0.4,1.8-0.6,2.5
		c-0.2,0.7-0.4,1.3-0.6,1.8s-0.4,0.9-0.6,1.3c-0.2,0.4-0.4,0.7-0.7,1h8.6L75.8,274.6L75.8,274.6z"/>
	<path class="st2" d="M103.1,291.8c0,0.1,0,0.2-0.1,0.3c-0.1,0.1-0.2,0.1-0.3,0.2c-0.2,0.1-0.4,0.1-0.7,0.1c-0.3,0-0.6,0-1,0
		c-0.4,0-0.8,0-1,0s-0.5-0.1-0.7-0.1c-0.2,0-0.3-0.1-0.3-0.2c-0.1-0.1-0.1-0.2-0.1-0.3v-11.2c0-0.4,0-0.8,0-1.3c0-0.4,0-0.8,0.1-1.1
		h0c-0.1,0.1-0.2,0.3-0.3,0.5c-0.1,0.2-0.3,0.4-0.4,0.6s-0.3,0.5-0.4,0.7c-0.2,0.2-0.3,0.5-0.5,0.7l-7.4,11
		c-0.1,0.1-0.2,0.2-0.3,0.3c-0.1,0.1-0.2,0.2-0.4,0.2c-0.2,0.1-0.3,0.1-0.5,0.1s-0.5,0-0.8,0c-0.4,0-0.8,0-1,0
		c-0.3,0-0.5-0.1-0.6-0.1c-0.2,0-0.3-0.1-0.3-0.2c-0.1-0.1-0.1-0.2-0.1-0.3v-20.1c0-0.1,0-0.2,0.1-0.3c0.1-0.1,0.2-0.1,0.4-0.2
		s0.4-0.1,0.7-0.1c0.3,0,0.6,0,1,0c0.4,0,0.8,0,1.1,0c0.3,0,0.5,0.1,0.7,0.1c0.2,0,0.3,0.1,0.3,0.2s0.1,0.2,0.1,0.3V283
		c0,0.4,0,0.7,0,1.1c0,0.4,0,0.8-0.1,1.1h0c0.2-0.3,0.4-0.7,0.7-1.2c0.3-0.5,0.6-0.9,0.9-1.4l7.4-11c0.1-0.1,0.2-0.2,0.3-0.3
		c0.1-0.1,0.2-0.1,0.3-0.2c0.2,0,0.3-0.1,0.6-0.1c0.2,0,0.5,0,0.8,0c0.4,0,0.8,0,1,0s0.5,0.1,0.6,0.1c0.2,0,0.3,0.1,0.3,0.2
		c0.1,0.1,0.1,0.2,0.1,0.3L103.1,291.8L103.1,291.8z"/>
	<path class="st2" d="M122.3,277.6c0,1.2-0.2,2.3-0.6,3.2c-0.4,0.9-0.9,1.7-1.6,2.3c-0.7,0.6-1.6,1.1-2.6,1.4
		c-1,0.3-2.3,0.5-3.7,0.5h-1.8v6.8c0,0.1,0,0.2-0.1,0.3s-0.2,0.2-0.3,0.2c-0.2,0.1-0.4,0.1-0.7,0.1c-0.3,0-0.6,0.1-1.1,0.1
		c-0.4,0-0.8,0-1-0.1c-0.3,0-0.5-0.1-0.7-0.1c-0.2-0.1-0.3-0.1-0.3-0.2c-0.1-0.1-0.1-0.2-0.1-0.3v-19.1c0-0.5,0.1-0.9,0.4-1.2
		c0.3-0.3,0.6-0.4,1.1-0.4h5c0.5,0,1,0,1.4,0.1c0.5,0,1,0.1,1.6,0.3c0.6,0.1,1.3,0.4,1.9,0.7s1.2,0.8,1.7,1.3
		c0.5,0.5,0.8,1.1,1.1,1.8S122.3,276.7,122.3,277.6z M117.8,277.9c0-0.8-0.1-1.4-0.4-1.8c-0.3-0.5-0.6-0.8-1-1.1
		c-0.4-0.2-0.8-0.4-1.2-0.4s-0.9-0.1-1.3-0.1h-1.8v7.2h1.9c0.7,0,1.3-0.1,1.7-0.3s0.8-0.5,1.1-0.8c0.3-0.3,0.5-0.7,0.7-1.2
		C117.7,278.9,117.8,278.4,117.8,277.9z"/>
	<path class="st2" d="M138.3,290.7c0,0.3,0,0.6,0,0.8s-0.1,0.4-0.1,0.5c0,0.1-0.1,0.2-0.2,0.3c-0.1,0.1-0.2,0.1-0.3,0.1h-10.7
		c-0.4,0-0.7-0.1-0.9-0.3c-0.3-0.2-0.4-0.6-0.4-1v-18.6c0-0.5,0.1-0.8,0.4-1c0.3-0.2,0.6-0.3,0.9-0.3h10.6c0.1,0,0.2,0,0.3,0.1
		c0.1,0.1,0.1,0.1,0.2,0.3c0.1,0.1,0.1,0.3,0.1,0.5s0,0.5,0,0.8c0,0.3,0,0.6,0,0.8s-0.1,0.4-0.1,0.5c-0.1,0.1-0.1,0.2-0.2,0.3
		s-0.2,0.1-0.3,0.1H130v5.2h6.4c0.1,0,0.2,0,0.3,0.1s0.1,0.2,0.2,0.3c0.1,0.1,0.1,0.3,0.1,0.5s0,0.5,0,0.8c0,0.3,0,0.6,0,0.8
		s-0.1,0.4-0.1,0.5c-0.1,0.1-0.1,0.2-0.2,0.3c-0.1,0.1-0.2,0.1-0.3,0.1H130v6h7.7c0.1,0,0.2,0,0.3,0.1s0.1,0.2,0.2,0.3
		c0.1,0.1,0.1,0.3,0.1,0.5C138.3,290.1,138.3,290.4,138.3,290.7z"/>
	<path class="st2" d="M157.9,291.8c0,0.1,0,0.2-0.1,0.3c-0.1,0.1-0.2,0.2-0.4,0.2c-0.2,0.1-0.4,0.1-0.7,0.1c-0.3,0-0.6,0-1.1,0
		c-0.5,0-0.9,0-1.1,0s-0.5-0.1-0.7-0.1s-0.3-0.1-0.4-0.3c-0.1-0.1-0.1-0.2-0.2-0.4l-1.7-4.7c-0.2-0.7-0.5-1.3-0.8-1.7
		c-0.3-0.5-0.6-0.8-0.9-1.1c-0.3-0.3-0.7-0.5-1.1-0.6c-0.4-0.1-0.9-0.2-1.4-0.2h-1v8.5c0,0.1,0,0.2-0.1,0.3
		c-0.1,0.1-0.2,0.1-0.4,0.2c-0.2,0.1-0.4,0.1-0.7,0.1c-0.3,0-0.6,0-1.1,0s-0.8,0-1,0s-0.5-0.1-0.7-0.1c-0.2-0.1-0.3-0.1-0.4-0.2
		c-0.1-0.1-0.1-0.2-0.1-0.3v-20.1c0-0.1,0-0.2,0.1-0.3c0.1-0.1,0.2-0.1,0.4-0.2s0.4-0.1,0.7-0.1c0.3,0,0.6,0,1,0c0.4,0,0.8,0,1.1,0
		s0.5,0.1,0.7,0.1c0.2,0,0.3,0.1,0.4,0.2c0.1,0.1,0.1,0.2,0.1,0.3v8h1c0.5,0,0.9-0.1,1.3-0.2s0.7-0.3,1-0.6s0.6-0.7,0.8-1.1
		c0.3-0.5,0.5-1,0.7-1.7l1.4-4.2c0.1-0.1,0.1-0.3,0.2-0.4c0.1-0.1,0.2-0.2,0.4-0.3s0.4-0.1,0.7-0.1s0.7,0,1.1,0c0.4,0,0.8,0,1.1,0
		s0.5,0.1,0.7,0.1c0.2,0.1,0.3,0.1,0.3,0.2s0.1,0.2,0.1,0.3c0,0.1,0,0.3-0.1,0.5c-0.1,0.2-0.1,0.5-0.3,0.8l-1.4,3.8
		c-0.3,0.7-0.5,1.3-0.8,1.8s-0.5,0.9-0.8,1.3c-0.3,0.3-0.6,0.6-0.9,0.8c-0.3,0.2-0.7,0.4-1.1,0.5v0c0.4,0.2,0.8,0.4,1.2,0.6
		c0.4,0.2,0.7,0.5,1,0.9c0.3,0.4,0.6,0.8,0.9,1.3c0.3,0.5,0.6,1.2,0.9,1.9l1.7,4.4c0.2,0.4,0.3,0.8,0.3,0.9
		C157.8,291.6,157.9,291.7,157.9,291.8z"/>
	<path class="st2" d="M175,272.9c0,0.3,0,0.6,0,0.8c0,0.2-0.1,0.4-0.1,0.5c-0.1,0.1-0.1,0.2-0.2,0.3c-0.1,0.1-0.2,0.1-0.3,0.1H169
		v17.2c0,0.1,0,0.2-0.1,0.3s-0.2,0.2-0.4,0.2c-0.2,0.1-0.4,0.1-0.7,0.1s-0.6,0-1,0c-0.4,0-0.8,0-1,0c-0.3,0-0.5-0.1-0.7-0.1
		c-0.2-0.1-0.3-0.1-0.4-0.2c-0.1-0.1-0.1-0.2-0.1-0.3v-17.1h-5.3c-0.1,0-0.2,0-0.3-0.1c-0.1-0.1-0.1-0.2-0.2-0.3s-0.1-0.3-0.1-0.5
		c0-0.2,0-0.5,0-0.8c0-0.3,0-0.6,0-0.8c0-0.2,0.1-0.4,0.1-0.5c0-0.1,0.1-0.2,0.2-0.3c0.1-0.1,0.2-0.1,0.3-0.1h15
		c0.1,0,0.2,0,0.3,0.1s0.1,0.2,0.2,0.3c0.1,0.1,0.1,0.3,0.1,0.5C174.9,272.3,175,272.6,175,272.9z"/>
	<path class="st2" d="M195.9,281.5c0,1.8-0.2,3.4-0.7,4.7c-0.4,1.4-1.1,2.6-2,3.6c-0.9,1-1.9,1.7-3.2,2.2c-1.3,0.5-2.8,0.8-4.4,0.8
		c-1.7,0-3.1-0.2-4.3-0.6c-1.2-0.4-2.3-1.1-3.1-2s-1.4-2-1.9-3.4c-0.4-1.4-0.6-3-0.6-4.9c0-1.7,0.2-3.3,0.7-4.6s1.1-2.6,2-3.5
		c0.9-1,1.9-1.7,3.2-2.2c1.3-0.5,2.8-0.8,4.4-0.8c1.6,0,3,0.2,4.3,0.6c1.2,0.4,2.3,1.1,3.1,2c0.8,0.9,1.4,2,1.9,3.4
		C195.7,278.1,195.9,279.7,195.9,281.5z M191.3,281.7c0-1.1-0.1-2.1-0.3-3s-0.5-1.7-0.9-2.4c-0.4-0.6-1-1.2-1.7-1.5
		c-0.7-0.4-1.6-0.5-2.6-0.5c-1.1,0-1.9,0.2-2.7,0.6s-1.3,0.9-1.7,1.6c-0.4,0.7-0.8,1.4-0.9,2.3c-0.2,0.9-0.3,1.8-0.3,2.8
		c0,1.2,0.1,2.2,0.3,3.1c0.2,0.9,0.5,1.7,0.9,2.4c0.4,0.7,1,1.2,1.7,1.5s1.6,0.5,2.6,0.5c1.1,0,1.9-0.2,2.7-0.6
		c0.7-0.4,1.3-0.9,1.7-1.6s0.8-1.5,0.9-2.4C191.3,283.7,191.3,282.8,191.3,281.7z"/>
	<path class="st2" d="M214.1,277.6c0,1.2-0.2,2.3-0.6,3.2s-0.9,1.7-1.6,2.3c-0.7,0.6-1.6,1.1-2.6,1.4c-1,0.3-2.3,0.5-3.7,0.5h-1.8
		v6.8c0,0.1,0,0.2-0.1,0.3s-0.2,0.2-0.4,0.2c-0.2,0.1-0.4,0.1-0.7,0.1s-0.6,0.1-1.1,0.1s-0.8,0-1-0.1s-0.5-0.1-0.7-0.1
		c-0.2-0.1-0.3-0.1-0.4-0.2c-0.1-0.1-0.1-0.2-0.1-0.3v-19.1c0-0.5,0.1-0.9,0.4-1.2c0.3-0.3,0.6-0.4,1.1-0.4h5c0.5,0,1,0,1.4,0.1
		c0.5,0,1,0.1,1.6,0.3c0.6,0.1,1.3,0.4,1.9,0.7s1.2,0.8,1.7,1.3c0.5,0.5,0.8,1.1,1.1,1.8S214.1,276.7,214.1,277.6z M209.6,277.9
		c0-0.8-0.1-1.4-0.4-1.8c-0.3-0.5-0.6-0.8-1-1.1s-0.8-0.4-1.2-0.4c-0.4-0.1-0.9-0.1-1.3-0.1h-1.8v7.2h1.9c0.7,0,1.3-0.1,1.7-0.3
		s0.9-0.5,1.1-0.8c0.3-0.3,0.5-0.7,0.7-1.2C209.5,278.9,209.6,278.4,209.6,277.9z"/>
</g>
</svg>
