<?xml version="1.0" encoding="utf-8"?>
<!-- Generator: Adobe Illustrator 24.1.2, SVG Export Plug-In . SVG Version: 6.00 Build 0)  -->
<svg version="1.1" id="Layer_1" xmlns="http://www.w3.org/2000/svg" xmlns:xlink="http://www.w3.org/1999/xlink" x="0px" y="0px"
	 viewBox="0 0 275.7 329.7" style="enable-background:new 0 0 275.7 329.7;" xml:space="preserve">
<style type="text/css">
	.st0{fill:#092E78;stroke:#FFFFFF;stroke-width:1.6972;stroke-miterlimit:10;}
	.st1{fill:#FF0000;}
	.st2{fill:#FFFFFF;}
</style>
<path class="st0" d="M246.9,317.8H29c-8.9,0-16.1-7.2-16.1-16.1v-79.1c0-8.9,7.2-16.1,16.1-16.1h217.9c8.9,0,16.1,7.2,16.1,16.1
	v79.1C263,310.6,255.8,317.8,246.9,317.8z"/>
<path class="st0" d="M246.9,124H29c-8.9,0-16.1-7.2-16.1-16.1V28.8c0-8.9,7.2-16.1,16.1-16.1h217.9c8.9,0,16.1,7.2,16.1,16.1v79.1
	C263,116.8,255.8,124,246.9,124z"/>
<g>
	<path class="st1" d="M133.7,219c-1.2,0-2.3-0.4-3.1-1.3l-20.4-20.4c-1.3-1.3-1.6-3.1-0.9-4.8s2.2-2.7,4-2.7l9.8,0.2v-49.7l-9.8,0.2
		c-1.9,0-3.4-1-4.1-2.7s-0.3-3.5,0.9-4.8l20.4-20.4c0.8-0.8,1.9-1.3,3.1-1.3s2.3,0.4,3.1,1.3l20.4,20.4c1.3,1.3,1.6,3.1,0.9,4.8
		c-0.7,1.7-2.2,2.7-4,2.7l-9.9-0.2V190l9.8-0.2c1.9,0,3.4,1,4.1,2.7c0.7,1.7,0.3,3.5-0.9,4.8l-20.4,20.4
		C136,218.6,134.9,219,133.7,219z"/>
	<path class="st2" d="M133.7,112.9c0.8,0,1.5,0.3,2.1,0.9l20.4,20.4c1.9,1.9,0.5,5.1-2.1,5.1c0,0,0,0-0.1,0l-11.2-0.2v52.5l11.2-0.2
		c0,0,0,0,0.1,0c2.6,0,4,3.2,2.1,5.1l-20.4,20.4c-0.6,0.6-1.4,0.9-2.1,0.9s-1.5-0.3-2.1-0.9l-20.4-20.4c-1.9-1.9-0.5-5.1,2.1-5.1
		c0,0,0,0,0.1,0l11.2,0.2V139l-11.2,0.2c0,0,0,0-0.1,0c-2.7,0-4-3.2-2.1-5.1l20.4-20.4C132.2,113.1,132.9,112.9,133.7,112.9
		 M133.7,110.1c-1.5,0-3,0.6-4.1,1.7l-20.4,20.4c-1.7,1.6-2.1,4.1-1.3,6.3s3,3.6,5.3,3.6h0.1l8.3-0.2v46.9l-8.4-0.1h-0.1
		c-2.3,0-4.4,1.4-5.3,3.6s-0.4,4.6,1.3,6.3l20.4,20.4c1.1,1.1,2.5,1.7,4.1,1.7c1.5,0,3-0.6,4.1-1.7l20.4-20.4
		c1.6-1.6,2.1-4.1,1.3-6.3s-3-3.6-5.3-3.6H154l-8.4,0.2V142l8.4,0.1h0.1c2.3,0,4.4-1.4,5.3-3.6s0.4-4.6-1.3-6.3l-20.4-20.4
		C136.7,110.7,135.2,110.1,133.7,110.1L133.7,110.1z"/>
</g>
<g>
	<path class="st2" d="M72.3,254.1c0,0.3,0,0.6,0,0.9s-0.1,0.4-0.1,0.6s-0.1,0.2-0.2,0.3s-0.2,0.1-0.3,0.1H60.2c-0.4,0-0.7-0.1-1-0.3
		s-0.4-0.6-0.4-1.1v-19.8c0-0.5,0.1-0.9,0.4-1.1s0.6-0.3,1-0.3h11.4c0.1,0,0.2,0,0.3,0.1s0.2,0.2,0.2,0.3s0.1,0.3,0.1,0.6
		s0,0.5,0,0.9c0,0.3,0,0.6,0,0.8s-0.1,0.4-0.1,0.6s-0.1,0.2-0.2,0.3s-0.2,0.1-0.3,0.1h-8.1v5.6h6.9c0.1,0,0.2,0,0.3,0.1
		s0.2,0.2,0.2,0.3s0.1,0.3,0.1,0.5s0,0.5,0,0.8c0,0.3,0,0.6,0,0.8s-0.1,0.4-0.1,0.5s-0.1,0.2-0.2,0.3s-0.2,0.1-0.3,0.1h-6.9v6.4h8.2
		c0.1,0,0.2,0,0.3,0.1s0.2,0.2,0.2,0.3s0.1,0.3,0.1,0.6S72.3,253.8,72.3,254.1z"/>
	<path class="st2" d="M92.6,254.2c0.2,0.4,0.3,0.7,0.4,1s0,0.4-0.1,0.6s-0.4,0.2-0.8,0.2c-0.4,0-0.9,0.1-1.5,0.1c-0.6,0-1,0-1.3,0
		c-0.3,0-0.6-0.1-0.7-0.1s-0.3-0.1-0.4-0.2s-0.2-0.2-0.2-0.4l-4.3-8.2l-4.3,8.2c-0.1,0.1-0.1,0.3-0.2,0.4s-0.2,0.2-0.4,0.2
		S78.3,256,78,256c-0.3,0-0.7,0-1.3,0c-0.6,0-1.1,0-1.4-0.1c-0.3,0-0.6-0.1-0.7-0.2s-0.1-0.3-0.1-0.6s0.2-0.6,0.4-1l5.4-9.9
		l-5.1-9.3c-0.2-0.4-0.4-0.8-0.4-1s0-0.4,0.1-0.6s0.4-0.2,0.7-0.2s0.9,0,1.5,0c0.6,0,1,0,1.3,0s0.6,0.1,0.8,0.1s0.3,0.1,0.4,0.2
		s0.1,0.2,0.2,0.4l4,7.5l3.9-7.5c0.1-0.1,0.1-0.3,0.2-0.4s0.2-0.2,0.4-0.2s0.4-0.1,0.7-0.1s0.7,0,1.2,0c0.6,0,1,0,1.4,0
		s0.6,0.1,0.7,0.2s0.2,0.3,0.1,0.6s-0.2,0.6-0.4,1l-5.1,9.3L92.6,254.2z"/>
	<path class="st2" d="M109.7,254.1c0,0.3,0,0.6,0,0.9s-0.1,0.4-0.1,0.6s-0.1,0.2-0.2,0.3s-0.2,0.1-0.3,0.1H97.6
		c-0.4,0-0.7-0.1-1-0.3s-0.4-0.6-0.4-1.1v-19.8c0-0.5,0.1-0.9,0.4-1.1s0.6-0.3,1-0.3h11.4c0.1,0,0.2,0,0.3,0.1s0.2,0.2,0.2,0.3
		s0.1,0.3,0.1,0.6s0,0.5,0,0.9c0,0.3,0,0.6,0,0.8s-0.1,0.4-0.1,0.6s-0.1,0.2-0.2,0.3s-0.2,0.1-0.3,0.1h-8.1v5.6h6.9
		c0.1,0,0.2,0,0.3,0.1s0.2,0.2,0.2,0.3s0.1,0.3,0.1,0.5s0,0.5,0,0.8c0,0.3,0,0.6,0,0.8s-0.1,0.4-0.1,0.5s-0.1,0.2-0.2,0.3
		s-0.2,0.1-0.3,0.1h-6.9v6.4h8.2c0.1,0,0.2,0,0.3,0.1s0.2,0.2,0.2,0.3s0.1,0.3,0.1,0.6S109.7,253.8,109.7,254.1z"/>
	<path class="st2" d="M129,252.5c0,0.3,0,0.5,0,0.7s0,0.4-0.1,0.5s-0.1,0.3-0.1,0.4s-0.2,0.2-0.3,0.4s-0.4,0.3-0.7,0.5
		s-0.8,0.4-1.4,0.6s-1.1,0.4-1.8,0.5c-0.7,0.1-1.4,0.2-2.2,0.2c-1.6,0-3-0.2-4.2-0.7c-1.3-0.5-2.3-1.2-3.2-2.2s-1.6-2.1-2-3.6
		s-0.7-3.1-0.7-5c0-1.9,0.3-3.7,0.8-5.2s1.2-2.8,2.2-3.8s2-1.8,3.3-2.3s2.7-0.8,4.3-0.8c0.6,0,1.2,0.1,1.8,0.2s1.1,0.2,1.6,0.4
		s0.9,0.4,1.3,0.6s0.7,0.4,0.8,0.6s0.3,0.3,0.3,0.4s0.1,0.2,0.1,0.4s0.1,0.4,0.1,0.6s0,0.5,0,0.8c0,0.4,0,0.7,0,0.9
		s-0.1,0.4-0.1,0.6s-0.1,0.3-0.2,0.3s-0.2,0.1-0.3,0.1c-0.2,0-0.4-0.1-0.7-0.3s-0.6-0.4-1-0.7s-0.9-0.5-1.5-0.7s-1.3-0.3-2.1-0.3
		c-0.9,0-1.7,0.2-2.4,0.6s-1.3,0.9-1.8,1.6s-0.9,1.5-1.1,2.5s-0.4,2.1-0.4,3.3c0,1.3,0.1,2.5,0.4,3.5s0.7,1.8,1.2,2.4
		s1.1,1.1,1.8,1.4s1.5,0.5,2.4,0.5c0.8,0,1.5-0.1,2.1-0.3s1.1-0.4,1.5-0.6s0.8-0.4,1.1-0.6s0.5-0.3,0.6-0.3c0.1,0,0.2,0,0.3,0.1
		s0.1,0.1,0.2,0.3s0.1,0.3,0.1,0.6S129,252.1,129,252.5z"/>
	<path class="st2" d="M150.8,247.5c0,1.4-0.2,2.6-0.6,3.7s-1,2-1.8,2.8s-1.8,1.3-3,1.7c-1.2,0.4-2.5,0.6-4,0.6
		c-1.4,0-2.7-0.2-3.8-0.5c-1.1-0.4-2.1-0.9-2.9-1.6s-1.4-1.6-1.8-2.7s-0.6-2.4-0.6-3.8v-13.8c0-0.1,0-0.2,0.1-0.3s0.2-0.2,0.4-0.2
		s0.4-0.1,0.7-0.1s0.7-0.1,1.1-0.1c0.4,0,0.8,0,1.1,0.1s0.5,0.1,0.7,0.1s0.3,0.1,0.4,0.2s0.1,0.2,0.1,0.3v13.4
		c0,0.9,0.1,1.7,0.3,2.3s0.5,1.2,1,1.6s0.9,0.8,1.5,1s1.2,0.3,1.9,0.3c0.7,0,1.4-0.1,2-0.3s1.1-0.5,1.5-1s0.7-1,0.9-1.6
		s0.3-1.3,0.3-2.1v-13.7c0-0.1,0-0.2,0.1-0.3s0.2-0.2,0.4-0.2s0.4-0.1,0.7-0.1s0.7-0.1,1.1-0.1s0.8,0,1.1,0.1s0.5,0.1,0.7,0.1
		s0.3,0.1,0.4,0.2s0.1,0.2,0.1,0.3V247.5z"/>
	<path class="st2" d="M170.9,235.1c0,0.3,0,0.6,0,0.9s-0.1,0.4-0.1,0.6s-0.1,0.3-0.2,0.3s-0.2,0.1-0.3,0.1h-5.7v18.3
		c0,0.1,0,0.2-0.1,0.3s-0.2,0.2-0.4,0.2s-0.4,0.1-0.7,0.1c-0.3,0-0.7,0.1-1.1,0.1s-0.8,0-1.1-0.1c-0.3,0-0.5-0.1-0.7-0.1
		s-0.3-0.1-0.4-0.2s-0.1-0.2-0.1-0.3V237h-5.7c-0.1,0-0.2,0-0.3-0.1s-0.2-0.2-0.2-0.3s-0.1-0.3-0.1-0.6s0-0.5,0-0.9
		c0-0.4,0-0.7,0-0.9s0.1-0.4,0.1-0.6s0.1-0.3,0.2-0.3s0.2-0.1,0.3-0.1h16c0.1,0,0.2,0,0.3,0.1s0.2,0.2,0.2,0.3s0.1,0.3,0.1,0.6
		S170.9,234.8,170.9,235.1z"/>
	<path class="st2" d="M178.2,255.3c0,0.1,0,0.2-0.1,0.3s-0.2,0.2-0.4,0.2s-0.4,0.1-0.7,0.1c-0.3,0-0.7,0.1-1.1,0.1
		c-0.4,0-0.8,0-1.1-0.1c-0.3,0-0.5-0.1-0.7-0.1s-0.3-0.1-0.4-0.2s-0.1-0.2-0.1-0.3v-21.5c0-0.1,0-0.2,0.1-0.3s0.2-0.2,0.4-0.2
		s0.4-0.1,0.7-0.1s0.7-0.1,1.1-0.1c0.5,0,0.8,0,1.1,0.1s0.5,0.1,0.7,0.1s0.3,0.1,0.4,0.2s0.1,0.2,0.1,0.3V255.3z"/>
	<path class="st2" d="M194.5,255.1c-0.1,0.2-0.1,0.4-0.2,0.5s-0.2,0.2-0.5,0.3s-0.5,0.1-0.9,0.1s-0.8,0-1.4,0c-0.5,0-0.9,0-1.2,0
		s-0.6,0-0.9,0c-0.2,0-0.4-0.1-0.6-0.1s-0.3-0.1-0.4-0.2s-0.2-0.2-0.2-0.3s-0.1-0.2-0.1-0.4l-6.8-20.2c-0.1-0.4-0.2-0.8-0.3-1
		s0-0.4,0.2-0.6s0.4-0.2,0.7-0.2s0.8,0,1.5,0c0.5,0,1,0,1.3,0s0.5,0.1,0.7,0.1s0.3,0.1,0.3,0.3s0.1,0.3,0.2,0.4l5.5,17.5h0l5.4-17.5
		c0-0.2,0.1-0.4,0.2-0.5s0.2-0.2,0.4-0.3s0.4-0.1,0.7-0.1s0.8,0,1.3,0c0.5,0,1,0,1.3,0.1s0.5,0.1,0.6,0.3s0.1,0.3,0.1,0.6
		s-0.1,0.6-0.3,1L194.5,255.1z"/>
	<path class="st2" d="M218,254.1c0,0.3,0,0.6,0,0.9s-0.1,0.4-0.1,0.6s-0.1,0.2-0.2,0.3s-0.2,0.1-0.3,0.1h-11.4c-0.4,0-0.7-0.1-1-0.3
		s-0.4-0.6-0.4-1.1v-19.8c0-0.5,0.1-0.9,0.4-1.1s0.6-0.3,1-0.3h11.4c0.1,0,0.2,0,0.3,0.1s0.2,0.2,0.2,0.3s0.1,0.3,0.1,0.6
		s0,0.5,0,0.9c0,0.3,0,0.6,0,0.8s-0.1,0.4-0.1,0.6s-0.1,0.2-0.2,0.3s-0.2,0.1-0.3,0.1h-8.1v5.6h6.9c0.1,0,0.2,0,0.3,0.1
		s0.2,0.2,0.2,0.3s0.1,0.3,0.1,0.5s0,0.5,0,0.8c0,0.3,0,0.6,0,0.8s-0.1,0.4-0.1,0.5s-0.1,0.2-0.2,0.3s-0.2,0.1-0.3,0.1h-6.9v6.4h8.2
		c0.1,0,0.2,0,0.3,0.1s0.2,0.2,0.2,0.3s0.1,0.3,0.1,0.6S218,253.8,218,254.1z"/>
	<path class="st2" d="M84.2,283.4c0,2.1-0.3,3.9-0.8,5.4s-1.3,2.7-2.3,3.6s-2.3,1.6-3.7,2.1s-3.2,0.7-5.2,0.7h-5.4
		c-0.4,0-0.7-0.1-1-0.3s-0.4-0.6-0.4-1.1v-19.8c0-0.5,0.1-0.9,0.4-1.1s0.6-0.3,1-0.3h5.8c2,0,3.7,0.2,5.2,0.7s2.6,1.2,3.6,2.1
		s1.7,2.1,2.2,3.5S84.2,281.6,84.2,283.4z M79.4,283.6c0-1.1-0.1-2.1-0.4-3s-0.7-1.7-1.2-2.4s-1.3-1.2-2.1-1.6s-2-0.6-3.4-0.6h-2.3
		v15.5h2.4c1.3,0,2.3-0.2,3.2-0.5s1.6-0.8,2.2-1.5s1-1.5,1.3-2.5S79.4,284.9,79.4,283.6z"/>
	<path class="st2" d="M92.6,294.5c0,0.1,0,0.2-0.1,0.3s-0.2,0.2-0.4,0.2s-0.4,0.1-0.7,0.1s-0.7,0.1-1.1,0.1c-0.4,0-0.8,0-1.1-0.1
		s-0.5-0.1-0.7-0.1s-0.3-0.1-0.4-0.2s-0.1-0.2-0.1-0.3V273c0-0.1,0-0.2,0.1-0.3s0.2-0.2,0.4-0.2s0.4-0.1,0.7-0.1s0.7-0.1,1.1-0.1
		c0.5,0,0.8,0,1.1,0.1s0.5,0.1,0.7,0.1s0.3,0.1,0.4,0.2s0.1,0.2,0.1,0.3V294.5z"/>
	<path class="st2" d="M114.4,294.6c0,0.1,0,0.2-0.1,0.3s-0.2,0.2-0.3,0.2s-0.4,0.1-0.8,0.1s-0.8,0-1.4,0c-0.5,0-0.9,0-1.2,0
		s-0.5-0.1-0.7-0.1s-0.3-0.1-0.4-0.2s-0.1-0.2-0.2-0.4l-2-5.1c-0.2-0.6-0.5-1.1-0.7-1.5s-0.5-0.8-0.8-1.1s-0.6-0.5-1-0.7
		s-0.8-0.2-1.3-0.2h-1.4v8.7c0,0.1,0,0.2-0.1,0.3s-0.2,0.2-0.4,0.2s-0.4,0.1-0.7,0.1s-0.7,0.1-1.1,0.1c-0.4,0-0.8,0-1.1-0.1
		s-0.5-0.1-0.7-0.1s-0.3-0.1-0.4-0.2s-0.1-0.2-0.1-0.3v-20.7c0-0.5,0.1-0.9,0.4-1.1s0.6-0.3,1-0.3h5.9c0.6,0,1.1,0,1.5,0
		s0.7,0.1,1.1,0.1c0.9,0.1,1.7,0.4,2.5,0.7s1.4,0.7,1.9,1.2s0.9,1.1,1.2,1.8s0.4,1.5,0.4,2.4c0,0.8-0.1,1.5-0.3,2.1
		s-0.5,1.2-0.9,1.7s-0.8,0.9-1.4,1.3s-1.2,0.7-1.9,0.9c0.3,0.2,0.7,0.4,1,0.6s0.6,0.5,0.8,0.9s0.5,0.7,0.7,1.1s0.5,0.9,0.7,1.5
		l1.9,4.5c0.2,0.4,0.3,0.8,0.4,1S114.4,294.4,114.4,294.6z M108.5,279.1c0-0.8-0.2-1.4-0.5-1.9s-0.9-0.9-1.7-1.1
		c-0.2-0.1-0.5-0.1-0.8-0.1s-0.7-0.1-1.2-0.1h-2.1v6.5h2.4c0.7,0,1.2-0.1,1.7-0.2s0.9-0.4,1.2-0.7s0.6-0.6,0.7-1
		S108.5,279.6,108.5,279.1z"/>
	<path class="st2" d="M131.3,293.3c0,0.3,0,0.6,0,0.9s-0.1,0.4-0.1,0.6s-0.1,0.2-0.2,0.3s-0.2,0.1-0.3,0.1h-11.4
		c-0.4,0-0.7-0.1-1-0.3s-0.4-0.6-0.4-1.1v-19.8c0-0.5,0.1-0.9,0.4-1.1s0.6-0.3,1-0.3h11.4c0.1,0,0.2,0,0.3,0.1s0.2,0.2,0.2,0.3
		s0.1,0.3,0.1,0.6s0,0.5,0,0.9c0,0.3,0,0.6,0,0.8s-0.1,0.4-0.1,0.6s-0.1,0.2-0.2,0.3s-0.2,0.1-0.3,0.1h-8.1v5.6h6.9
		c0.1,0,0.2,0,0.3,0.1s0.2,0.2,0.2,0.3s0.1,0.3,0.1,0.5s0,0.5,0,0.8c0,0.3,0,0.6,0,0.8s-0.1,0.4-0.1,0.5s-0.1,0.2-0.2,0.3
		s-0.2,0.1-0.3,0.1h-6.9v6.4h8.2c0.1,0,0.2,0,0.3,0.1s0.2,0.2,0.2,0.3s0.1,0.3,0.1,0.6S131.3,293,131.3,293.3z"/>
	<path class="st2" d="M150.6,291.7c0,0.3,0,0.5,0,0.7s0,0.4-0.1,0.5s-0.1,0.3-0.1,0.4s-0.2,0.2-0.3,0.4s-0.4,0.3-0.7,0.5
		s-0.8,0.4-1.4,0.6s-1.1,0.4-1.8,0.5s-1.4,0.2-2.2,0.2c-1.6,0-3-0.2-4.2-0.7s-2.3-1.2-3.2-2.2s-1.6-2.1-2-3.6s-0.7-3.1-0.7-5
		c0-1.9,0.3-3.7,0.8-5.2s1.2-2.8,2.2-3.8s2-1.8,3.3-2.3s2.7-0.8,4.3-0.8c0.6,0,1.2,0.1,1.8,0.2s1.1,0.2,1.6,0.4s0.9,0.4,1.3,0.6
		s0.7,0.4,0.8,0.6s0.3,0.3,0.3,0.4s0.1,0.2,0.1,0.4s0.1,0.4,0.1,0.6s0,0.5,0,0.8c0,0.4,0,0.7,0,0.9s-0.1,0.4-0.1,0.6
		s-0.1,0.3-0.2,0.3s-0.2,0.1-0.3,0.1c-0.2,0-0.4-0.1-0.7-0.3s-0.6-0.4-1-0.7s-0.9-0.5-1.5-0.7s-1.3-0.3-2.1-0.3
		c-0.9,0-1.7,0.2-2.4,0.6s-1.3,0.9-1.8,1.6s-0.9,1.5-1.1,2.5s-0.4,2.1-0.4,3.3c0,1.3,0.1,2.5,0.4,3.5s0.7,1.8,1.2,2.4
		s1.1,1.1,1.8,1.4s1.5,0.5,2.4,0.5c0.8,0,1.5-0.1,2.1-0.3s1.1-0.4,1.5-0.6s0.8-0.4,1.1-0.6s0.5-0.3,0.6-0.3c0.1,0,0.2,0,0.3,0.1
		s0.1,0.1,0.2,0.3s0.1,0.3,0.1,0.6S150.6,291.3,150.6,291.7z"/>
	<path class="st2" d="M169.2,274.3c0,0.3,0,0.6,0,0.9s-0.1,0.4-0.1,0.6s-0.1,0.3-0.2,0.3s-0.2,0.1-0.3,0.1h-5.7v18.3
		c0,0.1,0,0.2-0.1,0.3s-0.2,0.2-0.4,0.2s-0.4,0.1-0.7,0.1s-0.7,0.1-1.1,0.1s-0.8,0-1.1-0.1s-0.5-0.1-0.7-0.1s-0.3-0.1-0.4-0.2
		s-0.1-0.2-0.1-0.3v-18.3h-5.7c-0.1,0-0.2,0-0.3-0.1s-0.2-0.2-0.2-0.3s-0.1-0.3-0.1-0.6s0-0.5,0-0.9c0-0.4,0-0.7,0-0.9
		s0.1-0.4,0.1-0.6s0.1-0.3,0.2-0.3s0.2-0.1,0.3-0.1h16c0.1,0,0.2,0,0.3,0.1s0.2,0.2,0.2,0.3s0.1,0.3,0.1,0.6S169.2,274,169.2,274.3z
		"/>
	<path class="st2" d="M191.4,283.5c0,1.9-0.2,3.6-0.7,5.1s-1.2,2.8-2.1,3.8s-2.1,1.8-3.4,2.4s-2.9,0.8-4.7,0.8
		c-1.8,0-3.3-0.2-4.6-0.7s-2.4-1.2-3.3-2.1s-1.5-2.2-2-3.6s-0.7-3.2-0.7-5.2c0-1.8,0.2-3.5,0.7-5s1.2-2.7,2.1-3.8s2.1-1.8,3.4-2.4
		s3-0.8,4.8-0.8c1.7,0,3.2,0.2,4.6,0.7s2.4,1.2,3.3,2.1s1.6,2.1,2,3.6S191.4,281.5,191.4,283.5z M186.6,283.8c0-1.2-0.1-2.3-0.3-3.3
		s-0.5-1.8-1-2.5s-1.1-1.2-1.8-1.6s-1.7-0.6-2.8-0.6c-1.1,0-2.1,0.2-2.8,0.6s-1.4,1-1.8,1.7s-0.8,1.5-1,2.5s-0.3,2-0.3,3
		c0,1.2,0.1,2.4,0.3,3.3s0.5,1.8,0.9,2.5s1,1.2,1.8,1.6s1.7,0.6,2.8,0.6s2.1-0.2,2.8-0.6s1.4-1,1.8-1.7s0.8-1.6,1-2.5
		S186.6,284.9,186.6,283.8z"/>
	<path class="st2" d="M212.2,294.6c0,0.1,0,0.2-0.1,0.3s-0.2,0.2-0.3,0.2s-0.4,0.1-0.8,0.1s-0.8,0-1.4,0c-0.5,0-0.9,0-1.2,0
		s-0.5-0.1-0.7-0.1s-0.3-0.1-0.4-0.2s-0.1-0.2-0.2-0.4l-2-5.1c-0.2-0.6-0.5-1.1-0.7-1.5s-0.5-0.8-0.8-1.1s-0.6-0.5-1-0.7
		s-0.8-0.2-1.3-0.2h-1.4v8.7c0,0.1,0,0.2-0.1,0.3s-0.2,0.2-0.4,0.2s-0.4,0.1-0.7,0.1s-0.7,0.1-1.1,0.1c-0.4,0-0.8,0-1.1-0.1
		s-0.5-0.1-0.7-0.1s-0.3-0.1-0.4-0.2s-0.1-0.2-0.1-0.3v-20.7c0-0.5,0.1-0.9,0.4-1.1s0.6-0.3,1-0.3h5.9c0.6,0,1.1,0,1.5,0
		s0.7,0.1,1.1,0.1c0.9,0.1,1.7,0.4,2.5,0.7s1.4,0.7,1.9,1.2s0.9,1.1,1.2,1.8s0.4,1.5,0.4,2.4c0,0.8-0.1,1.5-0.3,2.1
		s-0.5,1.2-0.9,1.7s-0.8,0.9-1.4,1.3s-1.2,0.7-1.9,0.9c0.3,0.2,0.7,0.4,1,0.6s0.6,0.5,0.8,0.9s0.5,0.7,0.7,1.1s0.5,0.9,0.7,1.5
		l1.9,4.5c0.2,0.4,0.3,0.8,0.4,1S212.2,294.4,212.2,294.6z M206.2,279.1c0-0.8-0.2-1.4-0.5-1.9s-0.9-0.9-1.7-1.1
		c-0.2-0.1-0.5-0.1-0.8-0.1s-0.7-0.1-1.2-0.1h-2.1v6.5h2.4c0.7,0,1.2-0.1,1.7-0.2s0.9-0.4,1.2-0.7s0.6-0.6,0.7-1
		S206.2,279.6,206.2,279.1z"/>
</g>
<g>
	<path class="st2" d="M78,50.3c0,0.8-0.1,1.5-0.3,2.2s-0.5,1.2-0.9,1.7s-0.9,0.9-1.4,1.3s-1.1,0.7-1.8,0.9s-1.4,0.4-2.1,0.5
		s-1.6,0.2-2.5,0.2h-6c-0.4,0-0.7-0.1-1-0.3s-0.4-0.6-0.4-1.1V35.9c0-0.5,0.1-0.9,0.4-1.1s0.6-0.3,1-0.3h5.7c1.4,0,2.6,0.1,3.5,0.4
		s1.8,0.6,2.4,1.1s1.2,1.1,1.5,1.8s0.5,1.6,0.5,2.6c0,0.6-0.1,1.1-0.2,1.6s-0.3,0.9-0.6,1.3s-0.6,0.8-1,1.1s-0.8,0.6-1.3,0.7
		c0.6,0.1,1.2,0.3,1.8,0.6s1,0.7,1.4,1.1s0.7,1,1,1.6S78,49.6,78,50.3z M72,40.8c0-0.5-0.1-0.9-0.2-1.2s-0.4-0.7-0.6-0.9
		s-0.6-0.4-1.1-0.6s-1-0.2-1.7-0.2h-2.3v5.9h2.6c0.7,0,1.2-0.1,1.6-0.2s0.7-0.4,1-0.7s0.5-0.6,0.6-1S72,41.2,72,40.8z M73.2,50.5
		c0-0.5-0.1-1-0.3-1.4s-0.4-0.8-0.8-1s-0.8-0.5-1.3-0.7s-1.2-0.2-2.1-0.2h-2.7v6.5h3.3c0.6,0,1.2-0.1,1.6-0.2s0.8-0.3,1.1-0.6
		s0.6-0.6,0.8-1S73.2,51,73.2,50.5z"/>
	<path class="st2" d="M102.2,45.5c0,1.9-0.2,3.6-0.7,5.1s-1.2,2.8-2.1,3.8s-2.1,1.8-3.4,2.4s-2.9,0.8-4.7,0.8
		c-1.8,0-3.3-0.2-4.6-0.7s-2.4-1.2-3.3-2.1s-1.5-2.2-2-3.6s-0.7-3.2-0.7-5.2c0-1.8,0.2-3.5,0.7-5s1.2-2.7,2.1-3.8s2.1-1.8,3.4-2.4
		s3-0.8,4.8-0.8c1.7,0,3.2,0.2,4.6,0.7s2.4,1.2,3.3,2.1s1.6,2.1,2,3.6S102.2,43.5,102.2,45.5z M97.3,45.8c0-1.2-0.1-2.3-0.3-3.3
		s-0.5-1.8-1-2.5s-1.1-1.2-1.8-1.6s-1.7-0.6-2.8-0.6c-1.1,0-2.1,0.2-2.8,0.6s-1.4,1-1.8,1.7s-0.8,1.5-1,2.5s-0.3,2-0.3,3
		c0,1.2,0.1,2.4,0.3,3.3s0.5,1.8,0.9,2.5s1,1.2,1.8,1.6s1.7,0.6,2.8,0.6s2.1-0.2,2.8-0.6s1.4-1,1.8-1.7s0.8-1.6,1-2.5
		S97.3,46.9,97.3,45.8z"/>
	<path class="st2" d="M124.2,55.4c0.1,0.4,0.2,0.8,0.3,1s0,0.4-0.1,0.6s-0.4,0.2-0.7,0.2s-0.8,0-1.4,0c-0.6,0-1.1,0-1.4,0
		s-0.6-0.1-0.8-0.1s-0.3-0.1-0.4-0.2s-0.1-0.2-0.2-0.4L118,52h-8.5l-1.4,4.4c0,0.2-0.1,0.3-0.2,0.4s-0.2,0.2-0.4,0.3
		s-0.4,0.1-0.7,0.1s-0.7,0-1.2,0c-0.5,0-1,0-1.3-0.1s-0.5-0.1-0.6-0.3s-0.2-0.3-0.1-0.6s0.1-0.6,0.3-1l7-20.2
		c0.1-0.2,0.2-0.4,0.2-0.5s0.2-0.2,0.4-0.3s0.5-0.1,0.9-0.1s0.8,0,1.4,0c0.7,0,1.2,0,1.7,0s0.7,0.1,1,0.1s0.4,0.2,0.5,0.3
		s0.2,0.3,0.3,0.5L124.2,55.4z M113.7,38.7L113.7,38.7l-3.2,9.7h6.5L113.7,38.7z"/>
	<path class="st2" d="M144.2,56.6c0,0.1,0,0.2-0.1,0.3s-0.2,0.2-0.3,0.2s-0.4,0.1-0.8,0.1s-0.8,0-1.4,0c-0.5,0-0.9,0-1.2,0
		s-0.5-0.1-0.7-0.1s-0.3-0.1-0.4-0.2s-0.1-0.2-0.2-0.4l-2-5.1c-0.2-0.6-0.5-1.1-0.7-1.5s-0.5-0.8-0.8-1.1s-0.6-0.5-1-0.7
		s-0.8-0.2-1.3-0.2H132v8.7c0,0.1,0,0.2-0.1,0.3s-0.2,0.2-0.4,0.2s-0.4,0.1-0.7,0.1s-0.7,0.1-1.1,0.1c-0.4,0-0.8,0-1.1-0.1
		s-0.5-0.1-0.7-0.1s-0.3-0.1-0.4-0.2s-0.1-0.2-0.1-0.3V35.9c0-0.5,0.1-0.9,0.4-1.1s0.6-0.3,1-0.3h5.9c0.6,0,1.1,0,1.5,0
		s0.7,0.1,1.1,0.1c0.9,0.1,1.7,0.4,2.5,0.7c0.7,0.3,1.4,0.7,1.9,1.2s0.9,1.1,1.2,1.8s0.4,1.5,0.4,2.4c0,0.8-0.1,1.5-0.3,2.1
		s-0.5,1.2-0.9,1.7s-0.8,0.9-1.4,1.3s-1.2,0.7-1.9,0.9c0.3,0.2,0.7,0.4,1,0.6s0.6,0.5,0.8,0.9s0.5,0.7,0.7,1.1s0.5,0.9,0.7,1.5
		l1.9,4.5c0.2,0.4,0.3,0.8,0.4,1S144.2,56.4,144.2,56.6z M138.3,41.1c0-0.8-0.2-1.4-0.5-1.9s-0.9-0.9-1.7-1.1
		c-0.2-0.1-0.5-0.1-0.8-0.1s-0.7-0.1-1.2-0.1H132v6.5h2.4c0.7,0,1.2-0.1,1.7-0.2s0.9-0.4,1.2-0.7s0.6-0.6,0.7-1
		S138.3,41.6,138.3,41.1z"/>
	<path class="st2" d="M166.5,45.4c0,2.1-0.3,3.9-0.8,5.4s-1.3,2.7-2.3,3.6s-2.3,1.6-3.7,2.1s-3.2,0.7-5.2,0.7H149
		c-0.4,0-0.7-0.1-1-0.3s-0.4-0.6-0.4-1.1V35.9c0-0.5,0.1-0.9,0.4-1.1s0.6-0.3,1-0.3h5.8c2,0,3.7,0.2,5.2,0.7s2.6,1.2,3.6,2.1
		s1.7,2.1,2.2,3.5S166.5,43.6,166.5,45.4z M161.8,45.6c0-1.1-0.1-2.1-0.4-3s-0.7-1.7-1.2-2.4s-1.3-1.2-2.1-1.6s-2-0.6-3.4-0.6h-2.3
		v15.5h2.4c1.3,0,2.3-0.2,3.2-0.5s1.6-0.8,2.2-1.5s1-1.5,1.3-2.5S161.8,46.9,161.8,45.6z"/>
	<path class="st2" d="M198.9,45.5c0,1.9-0.2,3.6-0.7,5.1s-1.2,2.8-2.1,3.8s-2.1,1.8-3.4,2.4s-2.9,0.8-4.7,0.8
		c-1.8,0-3.3-0.2-4.6-0.7s-2.4-1.2-3.3-2.1s-1.5-2.2-2-3.6s-0.7-3.2-0.7-5.2c0-1.8,0.2-3.5,0.7-5s1.2-2.7,2.1-3.8s2.1-1.8,3.4-2.4
		s3-0.8,4.8-0.8c1.7,0,3.2,0.2,4.6,0.7s2.4,1.2,3.3,2.1s1.6,2.1,2,3.6S198.9,43.5,198.9,45.5z M194.1,45.8c0-1.2-0.1-2.3-0.3-3.3
		s-0.5-1.8-1-2.5s-1.1-1.2-1.8-1.6s-1.7-0.6-2.8-0.6c-1.1,0-2.1,0.2-2.8,0.6s-1.4,1-1.8,1.7s-0.8,1.5-1,2.5s-0.3,2-0.3,3
		c0,1.2,0.1,2.4,0.3,3.3s0.5,1.8,0.9,2.5s1,1.2,1.8,1.6s1.7,0.6,2.8,0.6s2.1-0.2,2.8-0.6s1.4-1,1.8-1.7s0.8-1.6,1-2.5
		S194.1,46.9,194.1,45.8z"/>
	<path class="st2" d="M215.6,36.3c0,0.4,0,0.6,0,0.9s-0.1,0.4-0.1,0.6s-0.1,0.2-0.2,0.3s-0.2,0.1-0.3,0.1h-7.4v6.1h7
		c0.1,0,0.2,0,0.3,0.1s0.2,0.2,0.2,0.3s0.1,0.3,0.1,0.6s0,0.5,0,0.9s0,0.6,0,0.9s-0.1,0.4-0.1,0.6s-0.1,0.3-0.2,0.3
		s-0.2,0.1-0.3,0.1h-7v8.5c0,0.1,0,0.2-0.1,0.3s-0.2,0.2-0.4,0.2s-0.4,0.1-0.7,0.1s-0.7,0.1-1.1,0.1c-0.4,0-0.8,0-1.1-0.1
		s-0.5-0.1-0.7-0.1s-0.3-0.1-0.4-0.2s-0.1-0.2-0.1-0.3V35.9c0-0.5,0.1-0.9,0.4-1.1s0.6-0.3,1-0.3h10.7c0.1,0,0.2,0,0.3,0.1
		s0.2,0.2,0.2,0.3s0.1,0.3,0.1,0.6S215.6,36,215.6,36.3z"/>
	<path class="st2" d="M75.8,84.6c0,2.1-0.3,3.9-0.8,5.4s-1.3,2.7-2.3,3.6s-2.3,1.6-3.7,2.1s-3.2,0.7-5.2,0.7h-5.4
		c-0.4,0-0.7-0.1-1-0.3s-0.4-0.6-0.4-1.1V75.1c0-0.5,0.1-0.9,0.4-1.1s0.6-0.3,1-0.3h5.8c2,0,3.7,0.2,5.2,0.7s2.6,1.2,3.6,2.1
		s1.7,2.1,2.2,3.5S75.8,82.8,75.8,84.6z M71.1,84.8c0-1.1-0.1-2.1-0.4-3s-0.7-1.7-1.2-2.4s-1.3-1.2-2.1-1.6s-2-0.6-3.4-0.6h-2.3
		v15.5H64c1.3,0,2.3-0.2,3.2-0.5s1.6-0.8,2.2-1.5s1-1.5,1.3-2.5S71.1,86.1,71.1,84.8z"/>
	<path class="st2" d="M84.3,95.7c0,0.1,0,0.2-0.1,0.3s-0.2,0.2-0.4,0.2s-0.4,0.1-0.7,0.1s-0.7,0.1-1.1,0.1c-0.4,0-0.8,0-1.1-0.1
		s-0.5-0.1-0.7-0.1s-0.3-0.1-0.4-0.2s-0.1-0.2-0.1-0.3V74.2c0-0.1,0-0.2,0.1-0.3s0.2-0.2,0.4-0.2s0.4-0.1,0.7-0.1s0.7-0.1,1.1-0.1
		c0.5,0,0.8,0,1.1,0.1s0.5,0.1,0.7,0.1s0.3,0.1,0.4,0.2s0.1,0.2,0.1,0.3V95.7z"/>
	<path class="st2" d="M106.1,95.8c0,0.1,0,0.2-0.1,0.3s-0.2,0.2-0.3,0.2s-0.4,0.1-0.8,0.1s-0.8,0-1.4,0c-0.5,0-0.9,0-1.2,0
		s-0.5-0.1-0.7-0.1s-0.3-0.1-0.4-0.2s-0.1-0.2-0.2-0.4l-2-5.1c-0.2-0.6-0.5-1.1-0.7-1.5s-0.5-0.8-0.8-1.1s-0.6-0.5-1-0.7
		s-0.8-0.2-1.3-0.2h-1.4v8.7c0,0.1,0,0.2-0.1,0.3s-0.2,0.2-0.4,0.2s-0.4,0.1-0.7,0.1s-0.7,0.1-1.1,0.1c-0.4,0-0.8,0-1.1-0.1
		s-0.5-0.1-0.7-0.1s-0.3-0.1-0.4-0.2s-0.1-0.2-0.1-0.3V75.1c0-0.5,0.1-0.9,0.4-1.1s0.6-0.3,1-0.3h5.9c0.6,0,1.1,0,1.5,0
		s0.7,0.1,1.1,0.1c0.9,0.1,1.7,0.4,2.5,0.7s1.4,0.7,1.9,1.2s0.9,1.1,1.2,1.8s0.4,1.5,0.4,2.4c0,0.8-0.1,1.5-0.3,2.1
		s-0.5,1.2-0.9,1.7s-0.8,0.9-1.4,1.3s-1.2,0.7-1.9,0.9c0.3,0.2,0.7,0.4,1,0.6s0.6,0.5,0.8,0.9s0.5,0.7,0.7,1.1s0.5,0.9,0.7,1.5
		l1.9,4.5c0.2,0.4,0.3,0.8,0.4,1S106.1,95.6,106.1,95.8z M100.2,80.3c0-0.8-0.2-1.4-0.5-1.9s-0.9-0.9-1.7-1.1
		c-0.2-0.1-0.5-0.1-0.8-0.1s-0.7-0.1-1.2-0.1h-2.1v6.5h2.4c0.7,0,1.2-0.1,1.7-0.2s0.9-0.4,1.2-0.7s0.6-0.6,0.7-1
		S100.2,80.8,100.2,80.3z"/>
	<path class="st2" d="M123,94.5c0,0.3,0,0.6,0,0.9s-0.1,0.4-0.1,0.6s-0.1,0.2-0.2,0.3s-0.2,0.1-0.3,0.1h-11.4c-0.4,0-0.7-0.1-1-0.3
		s-0.4-0.6-0.4-1.1V75.1c0-0.5,0.1-0.9,0.4-1.1s0.6-0.3,1-0.3h11.4c0.1,0,0.2,0,0.3,0.1s0.2,0.2,0.2,0.3s0.1,0.3,0.1,0.6
		s0,0.5,0,0.9c0,0.3,0,0.6,0,0.8s-0.1,0.4-0.1,0.6s-0.1,0.2-0.2,0.3s-0.2,0.1-0.3,0.1h-8.1v5.6h6.9c0.1,0,0.2,0,0.3,0.1
		s0.2,0.2,0.2,0.3s0.1,0.3,0.1,0.5s0,0.5,0,0.8c0,0.3,0,0.6,0,0.8s-0.1,0.4-0.1,0.5s-0.1,0.2-0.2,0.3s-0.2,0.1-0.3,0.1h-6.9v6.4h8.2
		c0.1,0,0.2,0,0.3,0.1s0.2,0.2,0.2,0.3s0.1,0.3,0.1,0.6S123,94.2,123,94.5z"/>
	<path class="st2" d="M142.3,92.9c0,0.3,0,0.5,0,0.7s0,0.4-0.1,0.5s-0.1,0.3-0.1,0.4s-0.2,0.2-0.3,0.4s-0.4,0.3-0.7,0.5
		s-0.8,0.4-1.4,0.6s-1.1,0.4-1.8,0.5s-1.4,0.2-2.2,0.2c-1.6,0-3-0.2-4.2-0.7s-2.3-1.2-3.2-2.2s-1.6-2.1-2-3.6s-0.7-3.1-0.7-5
		c0-1.9,0.3-3.7,0.8-5.2s1.2-2.8,2.2-3.8s2-1.8,3.3-2.3s2.7-0.8,4.3-0.8c0.6,0,1.2,0.1,1.8,0.2s1.1,0.2,1.6,0.4
		c0.5,0.2,0.9,0.4,1.3,0.6s0.7,0.4,0.8,0.6s0.3,0.3,0.3,0.4s0.1,0.2,0.1,0.4s0.1,0.4,0.1,0.6s0,0.5,0,0.8c0,0.4,0,0.7,0,0.9
		s-0.1,0.4-0.1,0.6s-0.1,0.3-0.2,0.3s-0.2,0.1-0.3,0.1c-0.2,0-0.4-0.1-0.7-0.3s-0.6-0.4-1-0.7s-0.9-0.5-1.5-0.7s-1.3-0.3-2.1-0.3
		c-0.9,0-1.7,0.2-2.4,0.6s-1.3,0.9-1.8,1.6s-0.9,1.5-1.1,2.5s-0.4,2.1-0.4,3.3c0,1.3,0.1,2.5,0.4,3.5s0.7,1.8,1.2,2.4
		s1.1,1.1,1.8,1.4s1.5,0.5,2.4,0.5c0.8,0,1.5-0.1,2.1-0.3c0.6-0.2,1.1-0.4,1.5-0.6s0.8-0.4,1.1-0.6s0.5-0.3,0.6-0.3
		c0.1,0,0.2,0,0.3,0.1s0.1,0.1,0.2,0.3s0.1,0.3,0.1,0.6S142.3,92.5,142.3,92.9z"/>
	<path class="st2" d="M160.9,75.5c0,0.3,0,0.6,0,0.9s-0.1,0.4-0.1,0.6s-0.1,0.3-0.2,0.3s-0.2,0.1-0.3,0.1h-5.7v18.3
		c0,0.1,0,0.2-0.1,0.3s-0.2,0.2-0.4,0.2s-0.4,0.1-0.7,0.1s-0.7,0.1-1.1,0.1s-0.8,0-1.1-0.1s-0.5-0.1-0.7-0.1s-0.3-0.1-0.4-0.2
		s-0.1-0.2-0.1-0.3V77.4h-5.7c-0.1,0-0.2,0-0.3-0.1s-0.2-0.2-0.2-0.3s-0.1-0.3-0.1-0.6s0-0.5,0-0.9c0-0.4,0-0.7,0-0.9
		s0.1-0.4,0.1-0.6s0.1-0.3,0.2-0.3s0.2-0.1,0.3-0.1h16c0.1,0,0.2,0,0.3,0.1s0.2,0.2,0.2,0.3s0.1,0.3,0.1,0.6S160.9,75.2,160.9,75.5z
		"/>
	<path class="st2" d="M183.1,84.7c0,1.9-0.2,3.6-0.7,5.1s-1.2,2.8-2.1,3.8s-2.1,1.8-3.4,2.4s-2.9,0.8-4.7,0.8
		c-1.8,0-3.3-0.2-4.6-0.7s-2.4-1.2-3.3-2.1s-1.5-2.2-2-3.6s-0.7-3.2-0.7-5.2c0-1.8,0.2-3.5,0.7-5s1.2-2.7,2.1-3.8s2.1-1.8,3.4-2.4
		s3-0.8,4.8-0.8c1.7,0,3.2,0.2,4.6,0.7s2.4,1.2,3.3,2.1s1.6,2.1,2,3.6S183.1,82.7,183.1,84.7z M178.2,85c0-1.2-0.1-2.3-0.3-3.3
		s-0.5-1.8-1-2.5s-1.1-1.2-1.8-1.6s-1.7-0.6-2.8-0.6c-1.1,0-2.1,0.2-2.8,0.6s-1.4,1-1.8,1.7s-0.8,1.5-1,2.5s-0.3,2-0.3,3
		c0,1.2,0.1,2.4,0.3,3.3s0.5,1.8,0.9,2.5s1,1.2,1.8,1.6s1.7,0.6,2.8,0.6s2.1-0.2,2.8-0.6s1.4-1,1.8-1.7s0.8-1.6,1-2.5
		S178.2,86.1,178.2,85z"/>
	<path class="st2" d="M203.9,95.8c0,0.1,0,0.2-0.1,0.3s-0.2,0.2-0.3,0.2s-0.4,0.1-0.8,0.1s-0.8,0-1.4,0c-0.5,0-0.9,0-1.2,0
		s-0.5-0.1-0.7-0.1s-0.3-0.1-0.4-0.2s-0.1-0.2-0.2-0.4l-2-5.1c-0.2-0.6-0.5-1.1-0.7-1.5s-0.5-0.8-0.8-1.1s-0.6-0.5-1-0.7
		s-0.8-0.2-1.3-0.2h-1.4v8.7c0,0.1,0,0.2-0.1,0.3s-0.2,0.2-0.4,0.2s-0.4,0.1-0.7,0.1s-0.7,0.1-1.1,0.1c-0.4,0-0.8,0-1.1-0.1
		s-0.5-0.1-0.7-0.1s-0.3-0.1-0.4-0.2s-0.1-0.2-0.1-0.3V75.1c0-0.5,0.1-0.9,0.4-1.1s0.6-0.3,1-0.3h5.9c0.6,0,1.1,0,1.5,0
		s0.7,0.1,1.1,0.1c0.9,0.1,1.7,0.4,2.5,0.7s1.4,0.7,1.9,1.2s0.9,1.1,1.2,1.8s0.4,1.5,0.4,2.4c0,0.8-0.1,1.5-0.3,2.1
		s-0.5,1.2-0.9,1.7s-0.8,0.9-1.4,1.3s-1.2,0.7-1.9,0.9c0.3,0.2,0.7,0.4,1,0.6s0.6,0.5,0.8,0.9s0.5,0.7,0.7,1.1s0.5,0.9,0.7,1.5
		l1.9,4.5c0.2,0.4,0.3,0.8,0.4,1S203.9,95.6,203.9,95.8z M197.9,80.3c0-0.8-0.2-1.4-0.5-1.9s-0.9-0.9-1.7-1.1
		c-0.2-0.1-0.5-0.1-0.8-0.1s-0.7-0.1-1.2-0.1h-2.1v6.5h2.4c0.7,0,1.2-0.1,1.7-0.2s0.9-0.4,1.2-0.7s0.6-0.6,0.7-1
		S197.9,80.8,197.9,80.3z"/>
	<path class="st2" d="M220.4,89.5c0,1.2-0.2,2.2-0.7,3.1s-1,1.7-1.8,2.3s-1.7,1.1-2.7,1.4s-2.1,0.5-3.3,0.5c-0.8,0-1.5-0.1-2.2-0.2
		s-1.3-0.3-1.8-0.5s-0.9-0.4-1.3-0.6s-0.6-0.4-0.7-0.5s-0.3-0.4-0.3-0.7s-0.1-0.7-0.1-1.2c0-0.4,0-0.7,0-0.9s0.1-0.4,0.1-0.6
		s0.1-0.3,0.2-0.3s0.2-0.1,0.3-0.1c0.2,0,0.4,0.1,0.7,0.3s0.7,0.4,1.2,0.6s1,0.4,1.7,0.6s1.4,0.3,2.3,0.3c0.6,0,1.1-0.1,1.5-0.2
		s0.8-0.3,1.1-0.6s0.5-0.6,0.7-0.9s0.2-0.8,0.2-1.2c0-0.5-0.1-1-0.4-1.3s-0.6-0.7-1.1-1s-1-0.6-1.5-0.8s-1.2-0.5-1.8-0.8
		s-1.2-0.6-1.8-1s-1.1-0.8-1.5-1.3s-0.8-1.1-1.1-1.8s-0.4-1.5-0.4-2.4c0-1.1,0.2-2,0.6-2.9s0.9-1.5,1.6-2.1s1.5-1,2.4-1.2
		s1.9-0.4,3-0.4c0.5,0,1.1,0,1.6,0.1s1,0.2,1.5,0.3s0.9,0.3,1.2,0.5s0.6,0.3,0.7,0.4s0.2,0.2,0.2,0.3s0.1,0.2,0.1,0.3s0,0.3,0.1,0.5
		s0,0.5,0,0.8c0,0.3,0,0.6,0,0.9s0,0.4-0.1,0.6s-0.1,0.3-0.2,0.3s-0.2,0.1-0.3,0.1s-0.3-0.1-0.6-0.2s-0.6-0.3-1-0.5
		s-0.9-0.4-1.4-0.5s-1.1-0.2-1.8-0.2c-0.5,0-0.9,0.1-1.3,0.2s-0.7,0.3-0.9,0.5s-0.4,0.5-0.6,0.8s-0.2,0.6-0.2,1
		c0,0.5,0.1,0.9,0.4,1.3s0.6,0.7,1.1,1s1,0.6,1.6,0.8s1.2,0.5,1.8,0.8s1.2,0.6,1.8,1s1.1,0.8,1.6,1.3s0.8,1.1,1.1,1.8
		S220.4,88.6,220.4,89.5z"/>
</g>
<text transform="matrix(1 0 0 1 -205.9377 255.9525)"><tspan x="0" y="0" class="st2" style="font-family:'Calibri-Bold'; font-size:36px;">Executive</tspan><tspan x="6.1" y="39.2" class="st2" style="font-family:'Calibri-Bold'; font-size:36px;">Director</tspan></text>
<text transform="matrix(1 0 0 1 -203.2045 57.152)"><tspan x="0" y="0" class="st2" style="font-family:'Calibri-Bold'; font-size:36px;">Board of </tspan><tspan x="-5.2" y="39.2" class="st2" style="font-family:'Calibri-Bold'; font-size:36px;">Directors</tspan></text>
</svg>
